<svg width="885" height="430" viewBox="0 0 885 430" fill="none" xmlns="http://www.w3.org/2000/svg">
<g transform="translate(885 0) rotate(90)">
<g filter="url(#filter0_f_2003_224)">
<mask id="path-1-inside-1_2003_224" fill="white">
<path d="M17.6643 112.686C17.6643 79.0825 17.6643 62.281 24.2039 49.4463C29.9563 38.1565 39.1352 28.9777 50.4249 23.2253C63.2596 16.6857 80.0612 16.6857 113.664 16.6857H314.664C348.267 16.6857 365.069 16.6857 377.904 23.2253C389.193 28.9777 398.372 38.1565 404.125 49.4463C410.664 62.281 410.664 79.0825 410.664 112.686V772.686C410.664 806.289 410.664 823.09 404.125 835.925C398.372 847.215 389.193 856.394 377.904 862.146C365.069 868.686 348.267 868.686 314.664 868.686H113.664C80.0612 868.686 63.2596 868.686 50.4249 862.146C39.1352 856.394 29.9563 847.215 24.2039 835.925C17.6643 823.09 17.6643 806.289 17.6643 772.686V112.686Z"/>
</mask>
<g clip-path="url(#paint0_angular_2003_224_clip_path)" data-figma-skip-parse="true" mask="url(#path-1-inside-1_2003_224)"><g transform="matrix(0 0.426 -0.248504 0 214.164 442.686)"><foreignObject x="-1004.69" y="-1004.69" width="2009.39" height="2009.39"><div xmlns="http://www.w3.org/1999/xhtml" style="background:conic-gradient(from 90deg,rgba(187, 108, 213, 1) 0deg,rgba(170, 110, 238, 1) 28.8deg,rgba(141, 152, 255, 1) 50.4deg,rgba(244, 185, 234, 1) 93.6deg,rgba(255, 186, 113, 1) 111.6deg,rgba(188, 130, 243, 1) 118.8deg,rgba(198, 134, 255, 1) 151.2deg,rgba(255, 103, 119, 1) 252deg,rgba(187, 108, 213, 1) 360deg);height:100%;width:100%;opacity:1"></div></foreignObject></g></g><path d="M50.4249 862.146L51.3329 860.364L50.4249 862.146ZM24.2039 835.925L25.9859 835.017L24.2039 835.925ZM404.125 835.925L402.343 835.017L404.125 835.925ZM377.904 862.146L376.996 860.364V860.364L377.904 862.146ZM404.125 49.4463L405.907 48.5383L404.125 49.4463ZM113.664 16.6857V18.6857H314.664V16.6857V14.6857H113.664V16.6857ZM410.664 112.686H408.664V772.686H410.664H412.664V112.686H410.664ZM314.664 868.686V866.686H113.664V868.686V870.686H314.664V868.686ZM17.6643 772.686H19.6643V112.686H17.6643H15.6643V772.686H17.6643ZM113.664 868.686V866.686C96.8297 866.686 84.3241 866.684 74.4193 865.875C64.5378 865.068 57.4213 863.466 51.3329 860.364L50.4249 862.146L49.5169 863.928C56.2632 867.365 63.9648 869.034 74.0936 869.862C84.199 870.687 96.8957 870.686 113.664 870.686V868.686ZM17.6643 772.686H15.6643C15.6643 789.454 15.6628 802.151 16.4884 812.256C17.316 822.385 18.9845 830.087 22.4219 836.833L24.2039 835.925L25.9859 835.017C22.8837 828.929 21.2825 821.812 20.4751 811.931C19.6659 802.026 19.6643 789.52 19.6643 772.686H17.6643ZM50.4249 862.146L51.3329 860.364C40.4195 854.803 31.5466 845.931 25.9859 835.017L24.2039 835.925L22.4219 836.833C28.3661 848.499 37.8508 857.984 49.5169 863.928L50.4249 862.146ZM410.664 772.686H408.664C408.664 789.52 408.663 802.026 407.853 811.931C407.046 821.812 405.445 828.929 402.343 835.017L404.125 835.925L405.907 836.833C409.344 830.087 411.013 822.385 411.84 812.256C412.666 802.151 412.664 789.454 412.664 772.686H410.664ZM314.664 868.686V870.686C331.433 870.686 344.13 870.687 354.235 869.862C364.364 869.034 372.065 867.365 378.812 863.928L377.904 862.146L376.996 860.364C370.907 863.466 363.791 865.068 353.909 865.875C344.005 866.684 331.499 866.686 314.664 866.686V868.686ZM404.125 835.925L402.343 835.017C396.782 845.931 387.909 854.803 376.996 860.364L377.904 862.146L378.812 863.928C390.478 857.984 399.963 848.499 405.907 836.833L404.125 835.925ZM314.664 16.6857V18.6857C331.499 18.6857 344.005 18.6872 353.909 19.4965C363.791 20.3038 370.907 21.9051 376.996 25.0073L377.904 23.2253L378.812 21.4433C372.065 18.0059 364.364 16.3373 354.235 15.5098C344.13 14.6841 331.433 14.6857 314.664 14.6857V16.6857ZM410.664 112.686H412.664C412.664 95.9171 412.666 83.2204 411.84 73.1149C411.013 62.9861 409.344 55.2846 405.907 48.5383L404.125 49.4463L402.343 50.3542C405.445 56.4426 407.046 63.5592 407.853 73.4407C408.663 83.3455 408.664 95.8511 408.664 112.686H410.664ZM377.904 23.2253L376.996 25.0073C387.909 30.568 396.782 39.4408 402.343 50.3542L404.125 49.4463L405.907 48.5383C399.963 36.8722 390.478 27.3874 378.812 21.4433L377.904 23.2253ZM113.664 16.6857V14.6857C96.8957 14.6857 84.199 14.6841 74.0936 15.5098C63.9648 16.3373 56.2632 18.0059 49.5169 21.4433L50.4249 23.2253L51.3329 25.0073C57.4213 21.9051 64.5378 20.3038 74.4193 19.4965C84.3241 18.6872 96.8297 18.6857 113.664 18.6857V16.6857ZM17.6643 112.686H19.6643C19.6643 95.8511 19.6659 83.3455 20.4751 73.4407C21.2825 63.5592 22.8837 56.4426 25.9859 50.3542L24.2039 49.4463L22.4219 48.5383C18.9845 55.2846 17.316 62.9861 16.4884 73.1149C15.6628 83.2204 15.6643 95.9171 15.6643 112.686H17.6643ZM50.4249 23.2253L49.5169 21.4433C37.8508 27.3874 28.3661 36.8722 22.4219 48.5383L24.2039 49.4463L25.9859 50.3542C31.5466 39.4408 40.4195 30.568 51.3329 25.0073L50.4249 23.2253Z" data-figma-gradient-fill="{&#34;type&#34;:&#34;GRADIENT_ANGULAR&#34;,&#34;stops&#34;:[{&#34;color&#34;:{&#34;r&#34;:0.66666668653488159,&#34;g&#34;:0.43137255311012268,&#34;b&#34;:0.93333333730697632,&#34;a&#34;:1.0},&#34;position&#34;:0.079999998211860657},{&#34;color&#34;:{&#34;r&#34;:0.55441081523895264,&#34;g&#34;:0.59937852621078491,&#34;b&#34;:1.0,&#34;a&#34;:1.0},&#34;position&#34;:0.14000000059604645},{&#34;color&#34;:{&#34;r&#34;:0.95904946327209473,&#34;g&#34;:0.72734165191650391,&#34;b&#34;:0.91948962211608887,&#34;a&#34;:1.0},&#34;position&#34;:0.25999999046325684},{&#34;color&#34;:{&#34;r&#34;:1.0,&#34;g&#34;:0.73015475273132324,&#34;b&#34;:0.44365233182907104,&#34;a&#34;:1.0},&#34;position&#34;:0.31000000238418579},{&#34;color&#34;:{&#34;r&#34;:0.73725491762161255,&#34;g&#34;:0.50980395078659058,&#34;b&#34;:0.95294117927551270,&#34;a&#34;:1.0},&#34;position&#34;:0.33000001311302185},{&#34;color&#34;:{&#34;r&#34;:0.77719807624816895,&#34;g&#34;:0.52703452110290527,&#34;b&#34;:1.0,&#34;a&#34;:1.0},&#34;position&#34;:0.41999998688697815},{&#34;color&#34;:{&#34;r&#34;:1.0,&#34;g&#34;:0.40445962548255920,&#34;b&#34;:0.46972432732582092,&#34;a&#34;:1.0},&#34;position&#34;:0.69999998807907104}],&#34;stopsVar&#34;:[{&#34;color&#34;:{&#34;r&#34;:0.66666668653488159,&#34;g&#34;:0.43137255311012268,&#34;b&#34;:0.93333333730697632,&#34;a&#34;:1.0},&#34;position&#34;:0.079999998211860657},{&#34;color&#34;:{&#34;r&#34;:0.55441081523895264,&#34;g&#34;:0.59937852621078491,&#34;b&#34;:1.0,&#34;a&#34;:1.0},&#34;position&#34;:0.14000000059604645},{&#34;color&#34;:{&#34;r&#34;:0.95904946327209473,&#34;g&#34;:0.72734165191650391,&#34;b&#34;:0.91948962211608887,&#34;a&#34;:1.0},&#34;position&#34;:0.25999999046325684},{&#34;color&#34;:{&#34;r&#34;:1.0,&#34;g&#34;:0.73015475273132324,&#34;b&#34;:0.44365233182907104,&#34;a&#34;:1.0},&#34;position&#34;:0.31000000238418579},{&#34;color&#34;:{&#34;r&#34;:0.73725491762161255,&#34;g&#34;:0.50980395078659058,&#34;b&#34;:0.95294117927551270,&#34;a&#34;:1.0},&#34;position&#34;:0.33000001311302185},{&#34;color&#34;:{&#34;r&#34;:0.77719807624816895,&#34;g&#34;:0.52703452110290527,&#34;b&#34;:1.0,&#34;a&#34;:1.0},&#34;position&#34;:0.41999998688697815},{&#34;color&#34;:{&#34;r&#34;:1.0,&#34;g&#34;:0.40445962548255920,&#34;b&#34;:0.46972432732582092,&#34;a&#34;:1.0},&#34;position&#34;:0.69999998807907104}],&#34;transform&#34;:{&#34;m00&#34;:2.4064311063580132e-14,&#34;m01&#34;:-497.00811767578125,&#34;m02&#34;:462.66836547851562,&#34;m10&#34;:852.0,&#34;m11&#34;:-2.8614175644810919e-14,&#34;m12&#34;:16.685684204101562},&#34;opacity&#34;:1.0,&#34;blendMode&#34;:&#34;NORMAL&#34;,&#34;visible&#34;:true}" mask="url(#path-1-inside-1_2003_224)"/>
</g>
<g filter="url(#filter1_f_2003_224)">
<mask id="path-3-inside-2_2003_224" fill="white">
<path d="M17.6643 112.686C17.6643 79.0825 17.6643 62.281 24.2039 49.4463C29.9563 38.1565 39.1352 28.9777 50.4249 23.2253C63.2596 16.6857 80.0612 16.6857 113.664 16.6857H314.664C348.267 16.6857 365.069 16.6857 377.904 23.2253C389.193 28.9777 398.372 38.1565 404.125 49.4463C410.664 62.281 410.664 79.0825 410.664 112.686V772.686C410.664 806.289 410.664 823.09 404.125 835.925C398.372 847.215 389.193 856.394 377.904 862.146C365.069 868.686 348.267 868.686 314.664 868.686H113.664C80.0612 868.686 63.2596 868.686 50.4249 862.146C39.1352 856.394 29.9563 847.215 24.2039 835.925C17.6643 823.09 17.6643 806.289 17.6643 772.686V112.686Z"/>
</mask>
<g clip-path="url(#paint1_angular_2003_224_clip_path)" data-figma-skip-parse="true" mask="url(#path-3-inside-2_2003_224)"><g transform="matrix(0 0.426 -0.248504 0 214.164 442.686)"><foreignObject x="-1011.74" y="-1011.74" width="2023.47" height="2023.47"><div xmlns="http://www.w3.org/1999/xhtml" style="background:conic-gradient(from 90deg,rgba(187, 108, 213, 1) 0deg,rgba(170, 110, 238, 1) 28.8deg,rgba(141, 152, 255, 1) 50.4deg,rgba(244, 185, 234, 1) 93.6deg,rgba(255, 186, 113, 1) 111.6deg,rgba(188, 130, 243, 1) 118.8deg,rgba(198, 134, 255, 1) 151.2deg,rgba(255, 103, 119, 1) 252deg,rgba(187, 108, 213, 1) 360deg);height:100%;width:100%;opacity:1"></div></foreignObject></g></g><path d="M50.4249 862.146L52.6948 857.691L50.4249 862.146ZM24.2039 835.925L28.6589 833.655L24.2039 835.925ZM404.125 835.925L399.67 833.655L404.125 835.925ZM377.904 862.146L375.634 857.691L377.904 862.146ZM404.125 49.4463L408.58 47.1763L404.125 49.4463ZM113.664 16.6857V21.6857H314.664V16.6857V11.6857H113.664V16.6857ZM410.664 112.686H405.664V772.686H410.664H415.664V112.686H410.664ZM314.664 868.686V863.686H113.664V868.686V873.686H314.664V868.686ZM17.6643 772.686H22.6643V112.686H17.6643H12.6643V772.686H17.6643ZM113.664 868.686V863.686C96.7802 863.686 84.4179 863.682 74.6636 862.885C64.9677 862.093 58.2898 860.542 52.6948 857.691L50.4249 862.146L48.1549 866.601C55.3946 870.29 63.5349 872.009 73.8493 872.852C84.1052 873.69 96.9452 873.686 113.664 873.686V868.686ZM17.6643 772.686H12.6643C12.6643 789.405 12.6604 802.245 13.4984 812.501C14.3411 822.815 16.0601 830.955 19.7489 838.195L24.2039 835.925L28.6589 833.655C25.8081 828.06 24.2573 821.382 23.4652 811.686C22.6682 801.932 22.6643 789.57 22.6643 772.686H17.6643ZM50.4249 862.146L52.6948 857.691C42.3459 852.418 33.932 844.004 28.6589 833.655L24.2039 835.925L19.7489 838.195C25.9807 850.426 35.9244 860.369 48.1549 866.601L50.4249 862.146ZM410.664 772.686H405.664C405.664 789.57 405.66 801.932 404.863 811.686C404.071 821.382 402.52 828.06 399.67 833.655L404.125 835.925L408.58 838.195C412.269 830.955 413.988 822.815 414.83 812.501C415.668 802.245 415.664 789.405 415.664 772.686H410.664ZM314.664 868.686V873.686C331.383 873.686 344.223 873.69 354.479 872.852C364.794 872.009 372.934 870.29 380.174 866.601L377.904 862.146L375.634 857.691C370.039 860.542 363.361 862.093 353.665 862.885C343.911 863.682 331.548 863.686 314.664 863.686V868.686ZM404.125 835.925L399.67 833.655C394.397 844.004 385.983 852.418 375.634 857.691L377.904 862.146L380.174 866.601C392.404 860.369 402.348 850.426 408.58 838.195L404.125 835.925ZM314.664 16.6857V21.6857C331.548 21.6857 343.911 21.6896 353.665 22.4865C363.361 23.2787 370.039 24.8295 375.634 27.6803L377.904 23.2253L380.174 18.7703C372.934 15.0815 364.794 13.3625 354.479 12.5197C344.223 11.6818 331.383 11.6857 314.664 11.6857V16.6857ZM410.664 112.686H415.664C415.664 95.9666 415.668 83.1266 414.83 72.8706C413.988 62.5563 412.269 54.416 408.58 47.1763L404.125 49.4463L399.67 51.7162C402.52 57.3112 404.071 63.989 404.863 73.685C405.66 83.4393 405.664 95.8016 405.664 112.686H410.664ZM377.904 23.2253L375.634 27.6803C385.983 32.9534 394.397 41.3673 399.67 51.7162L404.125 49.4463L408.58 47.1763C402.348 34.9458 392.404 25.002 380.174 18.7703L377.904 23.2253ZM113.664 16.6857V11.6857C96.9452 11.6857 84.1052 11.6818 73.8493 12.5197C63.5349 13.3625 55.3946 15.0815 48.1549 18.7703L50.4249 23.2253L52.6948 27.6803C58.2898 24.8295 64.9677 23.2787 74.6636 22.4865C84.4179 21.6896 96.7802 21.6857 113.664 21.6857V16.6857ZM17.6643 112.686H22.6643C22.6643 95.8016 22.6682 83.4393 23.4652 73.685C24.2573 63.989 25.8081 57.3112 28.6589 51.7162L24.2039 49.4463L19.7489 47.1763C16.0601 54.416 14.3411 62.5563 13.4984 72.8706C12.6604 83.1266 12.6643 95.9666 12.6643 112.686H17.6643ZM50.4249 23.2253L48.1549 18.7703C35.9244 25.002 25.9807 34.9458 19.7489 47.1763L24.2039 49.4463L28.6589 51.7162C33.932 41.3673 42.3459 32.9534 52.6948 27.6803L50.4249 23.2253Z" data-figma-gradient-fill="{&#34;type&#34;:&#34;GRADIENT_ANGULAR&#34;,&#34;stops&#34;:[{&#34;color&#34;:{&#34;r&#34;:0.66666668653488159,&#34;g&#34;:0.43137255311012268,&#34;b&#34;:0.93333333730697632,&#34;a&#34;:1.0},&#34;position&#34;:0.079999998211860657},{&#34;color&#34;:{&#34;r&#34;:0.55441081523895264,&#34;g&#34;:0.59937852621078491,&#34;b&#34;:1.0,&#34;a&#34;:1.0},&#34;position&#34;:0.14000000059604645},{&#34;color&#34;:{&#34;r&#34;:0.95904946327209473,&#34;g&#34;:0.72734165191650391,&#34;b&#34;:0.91948962211608887,&#34;a&#34;:1.0},&#34;position&#34;:0.25999999046325684},{&#34;color&#34;:{&#34;r&#34;:1.0,&#34;g&#34;:0.73015475273132324,&#34;b&#34;:0.44365233182907104,&#34;a&#34;:1.0},&#34;position&#34;:0.31000000238418579},{&#34;color&#34;:{&#34;r&#34;:0.73725491762161255,&#34;g&#34;:0.50980395078659058,&#34;b&#34;:0.95294117927551270,&#34;a&#34;:1.0},&#34;position&#34;:0.33000001311302185},{&#34;color&#34;:{&#34;r&#34;:0.77719807624816895,&#34;g&#34;:0.52703452110290527,&#34;b&#34;:1.0,&#34;a&#34;:1.0},&#34;position&#34;:0.41999998688697815},{&#34;color&#34;:{&#34;r&#34;:1.0,&#34;g&#34;:0.40445962548255920,&#34;b&#34;:0.46972432732582092,&#34;a&#34;:1.0},&#34;position&#34;:0.69999998807907104}],&#34;stopsVar&#34;:[{&#34;color&#34;:{&#34;r&#34;:0.66666668653488159,&#34;g&#34;:0.43137255311012268,&#34;b&#34;:0.93333333730697632,&#34;a&#34;:1.0},&#34;position&#34;:0.079999998211860657},{&#34;color&#34;:{&#34;r&#34;:0.55441081523895264,&#34;g&#34;:0.59937852621078491,&#34;b&#34;:1.0,&#34;a&#34;:1.0},&#34;position&#34;:0.14000000059604645},{&#34;color&#34;:{&#34;r&#34;:0.95904946327209473,&#34;g&#34;:0.72734165191650391,&#34;b&#34;:0.91948962211608887,&#34;a&#34;:1.0},&#34;position&#34;:0.25999999046325684},{&#34;color&#34;:{&#34;r&#34;:1.0,&#34;g&#34;:0.73015475273132324,&#34;b&#34;:0.44365233182907104,&#34;a&#34;:1.0},&#34;position&#34;:0.31000000238418579},{&#34;color&#34;:{&#34;r&#34;:0.73725491762161255,&#34;g&#34;:0.50980395078659058,&#34;b&#34;:0.95294117927551270,&#34;a&#34;:1.0},&#34;position&#34;:0.33000001311302185},{&#34;color&#34;:{&#34;r&#34;:0.77719807624816895,&#34;g&#34;:0.52703452110290527,&#34;b&#34;:1.0,&#34;a&#34;:1.0},&#34;position&#34;:0.41999998688697815},{&#34;color&#34;:{&#34;r&#34;:1.0,&#34;g&#34;:0.40445962548255920,&#34;b&#34;:0.46972432732582092,&#34;a&#34;:1.0},&#34;position&#34;:0.69999998807907104}],&#34;transform&#34;:{&#34;m00&#34;:2.4064311063580132e-14,&#34;m01&#34;:-497.00811767578125,&#34;m02&#34;:462.66836547851562,&#34;m10&#34;:852.0,&#34;m11&#34;:-2.8614175644810919e-14,&#34;m12&#34;:16.685684204101562},&#34;opacity&#34;:1.0,&#34;blendMode&#34;:&#34;NORMAL&#34;,&#34;visible&#34;:true}" mask="url(#path-3-inside-2_2003_224)"/>
</g>
<g filter="url(#filter2_f_2003_224)">
<mask id="path-5-inside-3_2003_224" fill="white">
<path d="M17.6643 112.686C17.6643 79.0825 17.6643 62.281 24.2039 49.4463C29.9563 38.1565 39.1352 28.9777 50.4249 23.2253C63.2596 16.6857 80.0612 16.6857 113.664 16.6857H314.664C348.267 16.6857 365.069 16.6857 377.904 23.2253C389.193 28.9777 398.372 38.1565 404.125 49.4463C410.664 62.281 410.664 79.0825 410.664 112.686V772.686C410.664 806.289 410.664 823.09 404.125 835.925C398.372 847.215 389.193 856.394 377.904 862.146C365.069 868.686 348.267 868.686 314.664 868.686H113.664C80.0612 868.686 63.2596 868.686 50.4249 862.146C39.1352 856.394 29.9563 847.215 24.2039 835.925C17.6643 823.09 17.6643 806.289 17.6643 772.686V112.686Z"/>
</mask>
<g clip-path="url(#paint2_angular_2003_224_clip_path)" data-figma-skip-parse="true" mask="url(#path-5-inside-3_2003_224)"><g transform="matrix(0 0.426 -0.248504 0 214.164 442.686)"><foreignObject x="-1016.43" y="-1016.43" width="2032.86" height="2032.86"><div xmlns="http://www.w3.org/1999/xhtml" style="background:conic-gradient(from 90deg,rgba(187, 108, 213, 1) 0deg,rgba(170, 110, 238, 1) 28.8deg,rgba(141, 152, 255, 1) 50.4deg,rgba(244, 185, 234, 1) 93.6deg,rgba(255, 186, 113, 1) 111.6deg,rgba(188, 130, 243, 1) 118.8deg,rgba(198, 134, 255, 1) 151.2deg,rgba(255, 103, 119, 1) 252deg,rgba(187, 108, 213, 1) 360deg);height:100%;width:100%;opacity:1"></div></foreignObject></g></g><path d="M50.4249 862.146L53.6028 855.909L50.4249 862.146ZM24.2039 835.925L30.441 832.747L24.2039 835.925ZM404.125 835.925L397.888 832.747L404.125 835.925ZM377.904 862.146L374.726 855.909V855.909L377.904 862.146ZM404.125 49.4463L410.362 46.2683L404.125 49.4463ZM113.664 16.6857V23.6857H314.664V16.6857V9.68568H113.664V16.6857ZM410.664 112.686H403.664V772.686H410.664H417.664V112.686H410.664ZM314.664 868.686V861.686H113.664V868.686V875.686H314.664V868.686ZM17.6643 772.686H24.6643V112.686H17.6643H10.6643V772.686H17.6643ZM113.664 868.686V861.686C96.7472 861.686 84.4804 861.68 74.8264 860.891C65.2542 860.109 58.8689 858.592 53.6028 855.909L50.4249 862.146L47.2469 868.383C54.8156 872.24 63.2484 873.992 73.6864 874.845C84.0427 875.691 96.9782 875.686 113.664 875.686V868.686ZM17.6643 772.686H10.6643C10.6643 789.372 10.6589 802.307 11.505 812.664C12.3578 823.102 14.1105 831.534 17.9669 839.103L24.2039 835.925L30.441 832.747C27.7578 827.481 26.2406 821.096 25.4585 811.524C24.6698 801.87 24.6643 789.603 24.6643 772.686H17.6643ZM50.4249 862.146L53.6028 855.909C43.6302 850.828 35.5222 842.72 30.441 832.747L24.2039 835.925L17.9669 839.103C24.3904 851.71 34.6401 861.96 47.2469 868.383L50.4249 862.146ZM410.664 772.686H403.664C403.664 789.603 403.659 801.87 402.87 811.524C402.088 821.096 400.571 827.481 397.888 832.747L404.125 835.925L410.362 839.103C414.218 831.534 415.971 823.102 416.824 812.664C417.67 802.307 417.664 789.372 417.664 772.686H410.664ZM314.664 868.686V875.686C331.35 875.686 344.286 875.691 354.642 874.845C365.08 873.992 373.513 872.24 381.082 868.383L377.904 862.146L374.726 855.909C369.46 858.592 363.074 860.109 353.502 860.891C343.848 861.68 331.581 861.686 314.664 861.686V868.686ZM404.125 835.925L397.888 832.747C392.806 842.72 384.698 850.828 374.726 855.909L377.904 862.146L381.082 868.383C393.689 861.96 403.938 851.71 410.362 839.103L404.125 835.925ZM314.664 16.6857V23.6857C331.581 23.6857 343.848 23.6911 353.502 24.4799C363.074 25.262 369.46 26.7791 374.726 29.4623L377.904 23.2253L381.082 16.9882C373.513 13.1318 365.08 11.3792 354.642 10.5264C344.286 9.68024 331.35 9.68568 314.664 9.68568V16.6857ZM410.664 112.686H417.664C417.664 95.9996 417.67 83.0641 416.824 72.7078C415.971 62.2698 414.218 53.8369 410.362 46.2683L404.125 49.4463L397.888 52.6242C400.571 57.8903 402.088 64.2756 402.87 73.8478C403.659 83.5018 403.664 95.7686 403.664 112.686H410.664ZM377.904 23.2253L374.726 29.4623C384.698 34.5436 392.806 42.6516 397.888 52.6242L404.125 49.4463L410.362 46.2683C403.938 33.6615 393.689 23.4118 381.082 16.9882L377.904 23.2253ZM113.664 16.6857V9.68568C96.9782 9.68568 84.0427 9.68024 73.6864 10.5264C63.2484 11.3792 54.8156 13.1318 47.2469 16.9882L50.4249 23.2253L53.6028 29.4623C58.8689 26.7791 65.2542 25.262 74.8264 24.4799C84.4804 23.6911 96.7472 23.6857 113.664 23.6857V16.6857ZM17.6643 112.686H24.6643C24.6643 95.7686 24.6698 83.5018 25.4585 73.8478C26.2406 64.2756 27.7578 57.8903 30.441 52.6242L24.2039 49.4463L17.9669 46.2683C14.1105 53.8369 12.3578 62.2698 11.505 72.7078C10.6589 83.0641 10.6643 95.9996 10.6643 112.686H17.6643ZM50.4249 23.2253L47.2469 16.9882C34.6401 23.4118 24.3904 33.6615 17.9669 46.2683L24.2039 49.4463L30.441 52.6242C35.5222 42.6516 43.6302 34.5436 53.6028 29.4623L50.4249 23.2253Z" data-figma-gradient-fill="{&#34;type&#34;:&#34;GRADIENT_ANGULAR&#34;,&#34;stops&#34;:[{&#34;color&#34;:{&#34;r&#34;:0.66666668653488159,&#34;g&#34;:0.43137255311012268,&#34;b&#34;:0.93333333730697632,&#34;a&#34;:1.0},&#34;position&#34;:0.079999998211860657},{&#34;color&#34;:{&#34;r&#34;:0.55441081523895264,&#34;g&#34;:0.59937852621078491,&#34;b&#34;:1.0,&#34;a&#34;:1.0},&#34;position&#34;:0.14000000059604645},{&#34;color&#34;:{&#34;r&#34;:0.95904946327209473,&#34;g&#34;:0.72734165191650391,&#34;b&#34;:0.91948962211608887,&#34;a&#34;:1.0},&#34;position&#34;:0.25999999046325684},{&#34;color&#34;:{&#34;r&#34;:1.0,&#34;g&#34;:0.73015475273132324,&#34;b&#34;:0.44365233182907104,&#34;a&#34;:1.0},&#34;position&#34;:0.31000000238418579},{&#34;color&#34;:{&#34;r&#34;:0.73725491762161255,&#34;g&#34;:0.50980395078659058,&#34;b&#34;:0.95294117927551270,&#34;a&#34;:1.0},&#34;position&#34;:0.33000001311302185},{&#34;color&#34;:{&#34;r&#34;:0.77719807624816895,&#34;g&#34;:0.52703452110290527,&#34;b&#34;:1.0,&#34;a&#34;:1.0},&#34;position&#34;:0.41999998688697815},{&#34;color&#34;:{&#34;r&#34;:1.0,&#34;g&#34;:0.40445962548255920,&#34;b&#34;:0.46972432732582092,&#34;a&#34;:1.0},&#34;position&#34;:0.69999998807907104}],&#34;stopsVar&#34;:[{&#34;color&#34;:{&#34;r&#34;:0.66666668653488159,&#34;g&#34;:0.43137255311012268,&#34;b&#34;:0.93333333730697632,&#34;a&#34;:1.0},&#34;position&#34;:0.079999998211860657},{&#34;color&#34;:{&#34;r&#34;:0.55441081523895264,&#34;g&#34;:0.59937852621078491,&#34;b&#34;:1.0,&#34;a&#34;:1.0},&#34;position&#34;:0.14000000059604645},{&#34;color&#34;:{&#34;r&#34;:0.95904946327209473,&#34;g&#34;:0.72734165191650391,&#34;b&#34;:0.91948962211608887,&#34;a&#34;:1.0},&#34;position&#34;:0.25999999046325684},{&#34;color&#34;:{&#34;r&#34;:1.0,&#34;g&#34;:0.73015475273132324,&#34;b&#34;:0.44365233182907104,&#34;a&#34;:1.0},&#34;position&#34;:0.31000000238418579},{&#34;color&#34;:{&#34;r&#34;:0.73725491762161255,&#34;g&#34;:0.50980395078659058,&#34;b&#34;:0.95294117927551270,&#34;a&#34;:1.0},&#34;position&#34;:0.33000001311302185},{&#34;color&#34;:{&#34;r&#34;:0.77719807624816895,&#34;g&#34;:0.52703452110290527,&#34;b&#34;:1.0,&#34;a&#34;:1.0},&#34;position&#34;:0.41999998688697815},{&#34;color&#34;:{&#34;r&#34;:1.0,&#34;g&#34;:0.40445962548255920,&#34;b&#34;:0.46972432732582092,&#34;a&#34;:1.0},&#34;position&#34;:0.69999998807907104}],&#34;transform&#34;:{&#34;m00&#34;:2.4064311063580132e-14,&#34;m01&#34;:-497.00811767578125,&#34;m02&#34;:462.66836547851562,&#34;m10&#34;:852.0,&#34;m11&#34;:-2.8614175644810919e-14,&#34;m12&#34;:16.685684204101562},&#34;opacity&#34;:1.0,&#34;blendMode&#34;:&#34;NORMAL&#34;,&#34;visible&#34;:true}" mask="url(#path-5-inside-3_2003_224)"/>
</g>
<g filter="url(#filter3_f_2003_224)" style="mix-blend-mode:hard-light">
<mask id="path-7-inside-4_2003_224" fill="white">
<path d="M20.0931 91.4385C20.0374 89.7231 20.0095 88.8653 20.0029 88.1796C19.6502 51.5242 51.9604 23.1235 88.2678 28.1746C88.947 28.2691 89.7941 28.4068 91.4884 28.6821C91.6442 28.7074 91.7221 28.7201 91.7998 28.7325C95.7006 29.3559 99.6534 29.5925 103.601 29.4389C103.679 29.4359 103.758 29.4326 103.916 29.426L306.231 21.0232C342.475 19.5178 360.596 18.7652 374.263 25.455C386.27 31.3325 395.97 41.0517 401.824 53.0701C408.488 66.7496 407.7 84.8699 406.124 121.11L401.164 235.186L409.38 783.055C409.551 794.414 409.636 800.093 409.02 804.591C404.857 835.003 378.412 857.368 347.732 856.425C343.194 856.286 337.608 855.259 326.435 853.206C325.23 852.984 324.627 852.873 324.024 852.775C320.122 852.14 316.166 851.892 312.214 852.035C311.604 852.057 310.992 852.091 309.768 852.161L122.28 862.767C85.9824 864.821 67.8337 865.847 54.0519 859.343C41.9438 853.629 32.0949 844.029 26.0726 832.071C19.2177 818.46 19.7796 800.291 20.9035 763.953L31.1643 432.186L20.0931 91.4385Z"/>
</mask>
<g clip-path="url(#paint3_angular_2003_224_clip_path)" data-figma-skip-parse="true" mask="url(#path-7-inside-4_2003_224)"><g transform="matrix(0 0.426 -0.248504 0 214.164 442.686)"><foreignObject x="-1023.47" y="-1023.47" width="2046.95" height="2046.95"><div xmlns="http://www.w3.org/1999/xhtml" style="background:conic-gradient(from 90deg,rgba(187, 108, 213, 1) 0deg,rgba(170, 110, 238, 1) 28.8deg,rgba(141, 152, 255, 1) 50.4deg,rgba(244, 185, 234, 1) 93.6deg,rgba(255, 186, 113, 1) 111.6deg,rgba(188, 130, 243, 1) 118.8deg,rgba(198, 134, 255, 1) 151.2deg,rgba(255, 103, 119, 1) 252deg,rgba(187, 108, 213, 1) 360deg);height:100%;width:100%;opacity:1"></div></foreignObject></g></g><path d="M401.164 235.186L391.174 234.751L391.161 235.043L391.165 235.336L401.164 235.186ZM31.1643 432.186L41.1595 432.495L41.1693 432.178L41.159 431.861L31.1643 432.186ZM91.4884 28.6821L93.0923 18.8116L91.4884 28.6821ZM91.7998 28.7325L93.3779 18.8578L91.7998 28.7325ZM103.916 29.426L103.501 19.4346L103.916 29.426ZM103.601 29.4389L103.212 19.4465L103.601 29.4389ZM122.28 862.767L121.715 852.783L122.28 862.767ZM54.0519 859.343L49.7838 868.387V868.387L54.0519 859.343ZM26.0726 832.071L35.0038 827.573L26.0726 832.071ZM409.38 783.055L399.381 783.205L409.38 783.055ZM409.02 804.591L418.928 805.947L409.02 804.591ZM326.435 853.206L328.243 843.37L326.435 853.206ZM347.732 856.425L347.424 866.42L347.732 856.425ZM406.124 121.11L396.134 120.676L406.124 121.11ZM401.824 53.0701L392.834 57.4493L401.824 53.0701ZM306.231 21.0232L306.646 31.0146L306.231 21.0232ZM374.263 25.455L369.866 34.4367L374.263 25.455ZM324.024 852.775L325.631 842.905L324.024 852.775ZM309.768 852.161L310.333 862.145L309.768 852.161ZM312.214 852.035L312.575 862.028L312.214 852.035ZM20.0029 88.1796L10.0034 88.2758L20.0029 88.1796ZM88.2678 28.1746L86.8899 38.0792L88.2678 28.1746ZM406.124 121.11L396.134 120.676L391.174 234.751L401.164 235.186L411.155 235.62L416.115 121.545L406.124 121.11ZM401.164 235.186L391.165 235.336L399.381 783.205L409.38 783.055L419.379 782.906L411.163 235.036L401.164 235.186ZM309.768 852.161L309.203 842.177L121.715 852.783L122.28 862.767L122.845 872.751L310.333 862.145L309.768 852.161ZM20.9035 763.953L30.8987 764.262L41.1595 432.495L31.1643 432.186L21.1691 431.877L10.9082 763.644L20.9035 763.953ZM31.1643 432.186L41.159 431.861L30.0878 91.1138L20.0931 91.4385L10.0984 91.7633L21.1696 432.51L31.1643 432.186ZM103.916 29.426L104.331 39.4174L306.646 31.0146L306.231 21.0232L305.816 11.0318L103.501 19.4346L103.916 29.426ZM91.4884 28.6821L89.8844 38.5526C90.0354 38.5772 90.1281 38.5922 90.2218 38.6072L91.7998 28.7325L93.3779 18.8578C93.316 18.8479 93.253 18.8377 93.0923 18.8116L91.4884 28.6821ZM103.916 29.426L103.501 19.4346C103.338 19.4414 103.274 19.444 103.212 19.4465L103.601 29.4389L103.989 39.4314C104.084 39.4277 104.178 39.4238 104.331 39.4174L103.916 29.426ZM91.7998 28.7325L90.2218 38.6072C94.7727 39.3345 99.3842 39.6105 103.989 39.4314L103.601 29.4389L103.212 19.4465C99.9225 19.5745 96.6285 19.3773 93.3779 18.8578L91.7998 28.7325ZM122.28 862.767L121.715 852.783C103.394 853.82 90.2766 854.553 80 854.268C69.8302 853.986 63.4226 852.708 58.3199 850.3L54.0519 859.343L49.7838 868.387C58.463 872.483 68.0206 873.943 79.4451 874.261C90.7626 874.575 104.868 873.768 122.845 872.751L122.28 862.767ZM20.9035 763.953L10.9082 763.644C10.3516 781.641 9.90655 795.762 10.5102 807.068C11.1196 818.48 12.8244 827.998 17.1413 836.569L26.0726 832.071L35.0038 827.573C32.4658 822.533 31.0242 816.161 30.4818 806.001C29.9336 795.735 30.3314 782.603 30.8987 764.262L20.9035 763.953ZM54.0519 859.343L58.3199 850.3C48.2299 845.538 40.0225 837.538 35.0038 827.573L26.0726 832.071L17.1413 836.569C24.1674 850.52 35.6578 861.72 49.7838 868.387L54.0519 859.343ZM409.38 783.055L399.381 783.205C399.558 794.958 399.599 799.681 399.112 803.235L409.02 804.591L418.928 805.947C419.673 800.505 419.543 793.869 419.379 782.906L409.38 783.055ZM326.435 853.206L324.628 863.041C335.412 865.023 341.934 866.252 347.424 866.42L347.732 856.425L348.039 846.43C344.454 846.32 339.803 845.495 328.243 843.37L326.435 853.206ZM409.02 804.591L399.112 803.235C395.643 828.578 373.606 847.216 348.039 846.43L347.732 856.425L347.424 866.42C383.219 867.52 414.071 841.427 418.928 805.947L409.02 804.591ZM406.124 121.11L416.115 121.545C416.895 103.596 417.516 89.5124 417.056 78.2226C416.591 66.8255 415.01 57.305 410.815 48.691L401.824 53.0701L392.834 57.4493C395.302 62.5147 396.659 68.894 397.072 79.0371C397.49 89.2874 396.929 102.384 396.134 120.676L406.124 121.11ZM306.231 21.0232L306.646 31.0146C324.939 30.2548 338.037 29.7191 348.287 30.1568C358.429 30.5899 364.806 31.9594 369.866 34.4367L374.263 25.455L378.659 16.4733C370.054 12.2608 360.536 10.6617 349.14 10.175C337.851 9.69293 323.766 10.2863 305.816 11.0318L306.231 21.0232ZM401.824 53.0701L410.815 48.691C403.985 34.6695 392.668 23.3305 378.659 16.4733L374.263 25.455L369.866 34.4367C379.872 39.3346 387.956 47.4339 392.834 57.4493L401.824 53.0701ZM326.435 853.206L328.243 843.37C327.075 843.156 326.358 843.024 325.631 842.905L324.024 852.775L322.417 862.645C322.897 862.723 323.385 862.813 324.628 863.041L326.435 853.206ZM309.768 852.161L310.333 862.145C311.595 862.073 312.09 862.046 312.575 862.028L312.214 852.035L311.853 842.041C311.117 842.068 310.389 842.11 309.203 842.177L309.768 852.161ZM324.024 852.775L325.631 842.905C321.078 842.164 316.463 841.875 311.853 842.041L312.214 852.035L312.575 862.028C315.868 861.909 319.165 862.116 322.417 862.645L324.024 852.775ZM20.0931 91.4385L30.0878 91.1138C30.0302 89.339 30.0076 88.6252 30.0024 88.0834L20.0029 88.1796L10.0034 88.2758C10.0113 89.1055 10.0446 90.1071 10.0984 91.7633L20.0931 91.4385ZM91.4884 28.6821L93.0923 18.8116C91.4567 18.5458 90.4675 18.3844 89.6458 18.27L88.2678 28.1746L86.8899 38.0792C87.4265 38.1539 88.1316 38.2678 89.8844 38.5526L91.4884 28.6821ZM20.0029 88.1796L30.0024 88.0834C29.7085 57.5372 56.6337 33.8699 86.8899 38.0792L88.2678 28.1746L89.6458 18.27C47.2871 12.377 9.59185 45.5112 10.0034 88.2758L20.0029 88.1796Z" data-figma-gradient-fill="{&#34;type&#34;:&#34;GRADIENT_ANGULAR&#34;,&#34;stops&#34;:[{&#34;color&#34;:{&#34;r&#34;:0.66666668653488159,&#34;g&#34;:0.43137255311012268,&#34;b&#34;:0.93333333730697632,&#34;a&#34;:1.0},&#34;position&#34;:0.079999998211860657},{&#34;color&#34;:{&#34;r&#34;:0.55441081523895264,&#34;g&#34;:0.59937852621078491,&#34;b&#34;:1.0,&#34;a&#34;:1.0},&#34;position&#34;:0.14000000059604645},{&#34;color&#34;:{&#34;r&#34;:0.95904946327209473,&#34;g&#34;:0.72734165191650391,&#34;b&#34;:0.91948962211608887,&#34;a&#34;:1.0},&#34;position&#34;:0.25999999046325684},{&#34;color&#34;:{&#34;r&#34;:1.0,&#34;g&#34;:0.73015475273132324,&#34;b&#34;:0.44365233182907104,&#34;a&#34;:1.0},&#34;position&#34;:0.31000000238418579},{&#34;color&#34;:{&#34;r&#34;:0.73725491762161255,&#34;g&#34;:0.50980395078659058,&#34;b&#34;:0.95294117927551270,&#34;a&#34;:1.0},&#34;position&#34;:0.33000001311302185},{&#34;color&#34;:{&#34;r&#34;:0.77719807624816895,&#34;g&#34;:0.52703452110290527,&#34;b&#34;:1.0,&#34;a&#34;:1.0},&#34;position&#34;:0.41999998688697815},{&#34;color&#34;:{&#34;r&#34;:1.0,&#34;g&#34;:0.40445962548255920,&#34;b&#34;:0.46972432732582092,&#34;a&#34;:1.0},&#34;position&#34;:0.69999998807907104}],&#34;stopsVar&#34;:[{&#34;color&#34;:{&#34;r&#34;:0.66666668653488159,&#34;g&#34;:0.43137255311012268,&#34;b&#34;:0.93333333730697632,&#34;a&#34;:1.0},&#34;position&#34;:0.079999998211860657},{&#34;color&#34;:{&#34;r&#34;:0.55441081523895264,&#34;g&#34;:0.59937852621078491,&#34;b&#34;:1.0,&#34;a&#34;:1.0},&#34;position&#34;:0.14000000059604645},{&#34;color&#34;:{&#34;r&#34;:0.95904946327209473,&#34;g&#34;:0.72734165191650391,&#34;b&#34;:0.91948962211608887,&#34;a&#34;:1.0},&#34;position&#34;:0.25999999046325684},{&#34;color&#34;:{&#34;r&#34;:1.0,&#34;g&#34;:0.73015475273132324,&#34;b&#34;:0.44365233182907104,&#34;a&#34;:1.0},&#34;position&#34;:0.31000000238418579},{&#34;color&#34;:{&#34;r&#34;:0.73725491762161255,&#34;g&#34;:0.50980395078659058,&#34;b&#34;:0.95294117927551270,&#34;a&#34;:1.0},&#34;position&#34;:0.33000001311302185},{&#34;color&#34;:{&#34;r&#34;:0.77719807624816895,&#34;g&#34;:0.52703452110290527,&#34;b&#34;:1.0,&#34;a&#34;:1.0},&#34;position&#34;:0.41999998688697815},{&#34;color&#34;:{&#34;r&#34;:1.0,&#34;g&#34;:0.40445962548255920,&#34;b&#34;:0.46972432732582092,&#34;a&#34;:1.0},&#34;position&#34;:0.69999998807907104}],&#34;transform&#34;:{&#34;m00&#34;:2.4064311063580132e-14,&#34;m01&#34;:-497.00811767578125,&#34;m02&#34;:462.66836547851562,&#34;m10&#34;:852.0,&#34;m11&#34;:-2.8614175644810919e-14,&#34;m12&#34;:16.685684204101562},&#34;opacity&#34;:1.0,&#34;blendMode&#34;:&#34;NORMAL&#34;,&#34;visible&#34;:true}" mask="url(#path-7-inside-4_2003_224)"/>
</g>
<defs>
<filter id="filter0_f_2003_224" x="15.6643" y="14.6857" width="397" height="856" filterUnits="userSpaceOnUse" color-interpolation-filters="sRGB">
<feFlood flood-opacity="0" result="BackgroundImageFix"/>
<feBlend mode="normal" in="SourceGraphic" in2="BackgroundImageFix" result="shape"/>
<feGaussianBlur stdDeviation="1" result="effect1_foregroundBlur_2003_224"/>
</filter>
<clipPath id="paint0_angular_2003_224_clip_path"><path d="M50.4249 862.146L51.3329 860.364L50.4249 862.146ZM24.2039 835.925L25.9859 835.017L24.2039 835.925ZM404.125 835.925L402.343 835.017L404.125 835.925ZM377.904 862.146L376.996 860.364V860.364L377.904 862.146ZM404.125 49.4463L405.907 48.5383L404.125 49.4463ZM113.664 16.6857V18.6857H314.664V16.6857V14.6857H113.664V16.6857ZM410.664 112.686H408.664V772.686H410.664H412.664V112.686H410.664ZM314.664 868.686V866.686H113.664V868.686V870.686H314.664V868.686ZM17.6643 772.686H19.6643V112.686H17.6643H15.6643V772.686H17.6643ZM113.664 868.686V866.686C96.8297 866.686 84.3241 866.684 74.4193 865.875C64.5378 865.068 57.4213 863.466 51.3329 860.364L50.4249 862.146L49.5169 863.928C56.2632 867.365 63.9648 869.034 74.0936 869.862C84.199 870.687 96.8957 870.686 113.664 870.686V868.686ZM17.6643 772.686H15.6643C15.6643 789.454 15.6628 802.151 16.4884 812.256C17.316 822.385 18.9845 830.087 22.4219 836.833L24.2039 835.925L25.9859 835.017C22.8837 828.929 21.2825 821.812 20.4751 811.931C19.6659 802.026 19.6643 789.52 19.6643 772.686H17.6643ZM50.4249 862.146L51.3329 860.364C40.4195 854.803 31.5466 845.931 25.9859 835.017L24.2039 835.925L22.4219 836.833C28.3661 848.499 37.8508 857.984 49.5169 863.928L50.4249 862.146ZM410.664 772.686H408.664C408.664 789.52 408.663 802.026 407.853 811.931C407.046 821.812 405.445 828.929 402.343 835.017L404.125 835.925L405.907 836.833C409.344 830.087 411.013 822.385 411.84 812.256C412.666 802.151 412.664 789.454 412.664 772.686H410.664ZM314.664 868.686V870.686C331.433 870.686 344.13 870.687 354.235 869.862C364.364 869.034 372.065 867.365 378.812 863.928L377.904 862.146L376.996 860.364C370.907 863.466 363.791 865.068 353.909 865.875C344.005 866.684 331.499 866.686 314.664 866.686V868.686ZM404.125 835.925L402.343 835.017C396.782 845.931 387.909 854.803 376.996 860.364L377.904 862.146L378.812 863.928C390.478 857.984 399.963 848.499 405.907 836.833L404.125 835.925ZM314.664 16.6857V18.6857C331.499 18.6857 344.005 18.6872 353.909 19.4965C363.791 20.3038 370.907 21.9051 376.996 25.0073L377.904 23.2253L378.812 21.4433C372.065 18.0059 364.364 16.3373 354.235 15.5098C344.13 14.6841 331.433 14.6857 314.664 14.6857V16.6857ZM410.664 112.686H412.664C412.664 95.9171 412.666 83.2204 411.84 73.1149C411.013 62.9861 409.344 55.2846 405.907 48.5383L404.125 49.4463L402.343 50.3542C405.445 56.4426 407.046 63.5592 407.853 73.4407C408.663 83.3455 408.664 95.8511 408.664 112.686H410.664ZM377.904 23.2253L376.996 25.0073C387.909 30.568 396.782 39.4408 402.343 50.3542L404.125 49.4463L405.907 48.5383C399.963 36.8722 390.478 27.3874 378.812 21.4433L377.904 23.2253ZM113.664 16.6857V14.6857C96.8957 14.6857 84.199 14.6841 74.0936 15.5098C63.9648 16.3373 56.2632 18.0059 49.5169 21.4433L50.4249 23.2253L51.3329 25.0073C57.4213 21.9051 64.5378 20.3038 74.4193 19.4965C84.3241 18.6872 96.8297 18.6857 113.664 18.6857V16.6857ZM17.6643 112.686H19.6643C19.6643 95.8511 19.6659 83.3455 20.4751 73.4407C21.2825 63.5592 22.8837 56.4426 25.9859 50.3542L24.2039 49.4463L22.4219 48.5383C18.9845 55.2846 17.316 62.9861 16.4884 73.1149C15.6628 83.2204 15.6643 95.9171 15.6643 112.686H17.6643ZM50.4249 23.2253L49.5169 21.4433C37.8508 27.3874 28.3661 36.8722 22.4219 48.5383L24.2039 49.4463L25.9859 50.3542C31.5466 39.4408 40.4195 30.568 51.3329 25.0073L50.4249 23.2253Z" mask="url(#path-1-inside-1_2003_224)"/></clipPath><filter id="filter1_f_2003_224" x="13.6643" y="12.6857" width="401" height="860" filterUnits="userSpaceOnUse" color-interpolation-filters="sRGB">
<feFlood flood-opacity="0" result="BackgroundImageFix"/>
<feBlend mode="normal" in="SourceGraphic" in2="BackgroundImageFix" result="shape"/>
<feGaussianBlur stdDeviation="2" result="effect1_foregroundBlur_2003_224"/>
</filter>
<clipPath id="paint1_angular_2003_224_clip_path"><path d="M50.4249 862.146L52.6948 857.691L50.4249 862.146ZM24.2039 835.925L28.6589 833.655L24.2039 835.925ZM404.125 835.925L399.67 833.655L404.125 835.925ZM377.904 862.146L375.634 857.691L377.904 862.146ZM404.125 49.4463L408.58 47.1763L404.125 49.4463ZM113.664 16.6857V21.6857H314.664V16.6857V11.6857H113.664V16.6857ZM410.664 112.686H405.664V772.686H410.664H415.664V112.686H410.664ZM314.664 868.686V863.686H113.664V868.686V873.686H314.664V868.686ZM17.6643 772.686H22.6643V112.686H17.6643H12.6643V772.686H17.6643ZM113.664 868.686V863.686C96.7802 863.686 84.4179 863.682 74.6636 862.885C64.9677 862.093 58.2898 860.542 52.6948 857.691L50.4249 862.146L48.1549 866.601C55.3946 870.29 63.5349 872.009 73.8493 872.852C84.1052 873.69 96.9452 873.686 113.664 873.686V868.686ZM17.6643 772.686H12.6643C12.6643 789.405 12.6604 802.245 13.4984 812.501C14.3411 822.815 16.0601 830.955 19.7489 838.195L24.2039 835.925L28.6589 833.655C25.8081 828.06 24.2573 821.382 23.4652 811.686C22.6682 801.932 22.6643 789.57 22.6643 772.686H17.6643ZM50.4249 862.146L52.6948 857.691C42.3459 852.418 33.932 844.004 28.6589 833.655L24.2039 835.925L19.7489 838.195C25.9807 850.426 35.9244 860.369 48.1549 866.601L50.4249 862.146ZM410.664 772.686H405.664C405.664 789.57 405.66 801.932 404.863 811.686C404.071 821.382 402.52 828.06 399.67 833.655L404.125 835.925L408.58 838.195C412.269 830.955 413.988 822.815 414.83 812.501C415.668 802.245 415.664 789.405 415.664 772.686H410.664ZM314.664 868.686V873.686C331.383 873.686 344.223 873.69 354.479 872.852C364.794 872.009 372.934 870.29 380.174 866.601L377.904 862.146L375.634 857.691C370.039 860.542 363.361 862.093 353.665 862.885C343.911 863.682 331.548 863.686 314.664 863.686V868.686ZM404.125 835.925L399.67 833.655C394.397 844.004 385.983 852.418 375.634 857.691L377.904 862.146L380.174 866.601C392.404 860.369 402.348 850.426 408.58 838.195L404.125 835.925ZM314.664 16.6857V21.6857C331.548 21.6857 343.911 21.6896 353.665 22.4865C363.361 23.2787 370.039 24.8295 375.634 27.6803L377.904 23.2253L380.174 18.7703C372.934 15.0815 364.794 13.3625 354.479 12.5197C344.223 11.6818 331.383 11.6857 314.664 11.6857V16.6857ZM410.664 112.686H415.664C415.664 95.9666 415.668 83.1266 414.83 72.8706C413.988 62.5563 412.269 54.416 408.58 47.1763L404.125 49.4463L399.67 51.7162C402.52 57.3112 404.071 63.989 404.863 73.685C405.66 83.4393 405.664 95.8016 405.664 112.686H410.664ZM377.904 23.2253L375.634 27.6803C385.983 32.9534 394.397 41.3673 399.67 51.7162L404.125 49.4463L408.58 47.1763C402.348 34.9458 392.404 25.002 380.174 18.7703L377.904 23.2253ZM113.664 16.6857V11.6857C96.9452 11.6857 84.1052 11.6818 73.8493 12.5197C63.5349 13.3625 55.3946 15.0815 48.1549 18.7703L50.4249 23.2253L52.6948 27.6803C58.2898 24.8295 64.9677 23.2787 74.6636 22.4865C84.4179 21.6896 96.7802 21.6857 113.664 21.6857V16.6857ZM17.6643 112.686H22.6643C22.6643 95.8016 22.6682 83.4393 23.4652 73.685C24.2573 63.989 25.8081 57.3112 28.6589 51.7162L24.2039 49.4463L19.7489 47.1763C16.0601 54.416 14.3411 62.5563 13.4984 72.8706C12.6604 83.1266 12.6643 95.9666 12.6643 112.686H17.6643ZM50.4249 23.2253L48.1549 18.7703C35.9244 25.002 25.9807 34.9458 19.7489 47.1763L24.2039 49.4463L28.6589 51.7162C33.932 41.3673 42.3459 32.9534 52.6948 27.6803L50.4249 23.2253Z" mask="url(#path-3-inside-2_2003_224)"/></clipPath><filter id="filter2_f_2003_224" x="7.66431" y="6.68568" width="413" height="872" filterUnits="userSpaceOnUse" color-interpolation-filters="sRGB">
<feFlood flood-opacity="0" result="BackgroundImageFix"/>
<feBlend mode="normal" in="SourceGraphic" in2="BackgroundImageFix" result="shape"/>
<feGaussianBlur stdDeviation="5" result="effect1_foregroundBlur_2003_224"/>
</filter>
<clipPath id="paint2_angular_2003_224_clip_path"><path d="M50.4249 862.146L53.6028 855.909L50.4249 862.146ZM24.2039 835.925L30.441 832.747L24.2039 835.925ZM404.125 835.925L397.888 832.747L404.125 835.925ZM377.904 862.146L374.726 855.909V855.909L377.904 862.146ZM404.125 49.4463L410.362 46.2683L404.125 49.4463ZM113.664 16.6857V23.6857H314.664V16.6857V9.68568H113.664V16.6857ZM410.664 112.686H403.664V772.686H410.664H417.664V112.686H410.664ZM314.664 868.686V861.686H113.664V868.686V875.686H314.664V868.686ZM17.6643 772.686H24.6643V112.686H17.6643H10.6643V772.686H17.6643ZM113.664 868.686V861.686C96.7472 861.686 84.4804 861.68 74.8264 860.891C65.2542 860.109 58.8689 858.592 53.6028 855.909L50.4249 862.146L47.2469 868.383C54.8156 872.24 63.2484 873.992 73.6864 874.845C84.0427 875.691 96.9782 875.686 113.664 875.686V868.686ZM17.6643 772.686H10.6643C10.6643 789.372 10.6589 802.307 11.505 812.664C12.3578 823.102 14.1105 831.534 17.9669 839.103L24.2039 835.925L30.441 832.747C27.7578 827.481 26.2406 821.096 25.4585 811.524C24.6698 801.87 24.6643 789.603 24.6643 772.686H17.6643ZM50.4249 862.146L53.6028 855.909C43.6302 850.828 35.5222 842.72 30.441 832.747L24.2039 835.925L17.9669 839.103C24.3904 851.71 34.6401 861.96 47.2469 868.383L50.4249 862.146ZM410.664 772.686H403.664C403.664 789.603 403.659 801.87 402.87 811.524C402.088 821.096 400.571 827.481 397.888 832.747L404.125 835.925L410.362 839.103C414.218 831.534 415.971 823.102 416.824 812.664C417.67 802.307 417.664 789.372 417.664 772.686H410.664ZM314.664 868.686V875.686C331.35 875.686 344.286 875.691 354.642 874.845C365.08 873.992 373.513 872.24 381.082 868.383L377.904 862.146L374.726 855.909C369.46 858.592 363.074 860.109 353.502 860.891C343.848 861.68 331.581 861.686 314.664 861.686V868.686ZM404.125 835.925L397.888 832.747C392.806 842.72 384.698 850.828 374.726 855.909L377.904 862.146L381.082 868.383C393.689 861.96 403.938 851.71 410.362 839.103L404.125 835.925ZM314.664 16.6857V23.6857C331.581 23.6857 343.848 23.6911 353.502 24.4799C363.074 25.262 369.46 26.7791 374.726 29.4623L377.904 23.2253L381.082 16.9882C373.513 13.1318 365.08 11.3792 354.642 10.5264C344.286 9.68024 331.35 9.68568 314.664 9.68568V16.6857ZM410.664 112.686H417.664C417.664 95.9996 417.67 83.0641 416.824 72.7078C415.971 62.2698 414.218 53.8369 410.362 46.2683L404.125 49.4463L397.888 52.6242C400.571 57.8903 402.088 64.2756 402.87 73.8478C403.659 83.5018 403.664 95.7686 403.664 112.686H410.664ZM377.904 23.2253L374.726 29.4623C384.698 34.5436 392.806 42.6516 397.888 52.6242L404.125 49.4463L410.362 46.2683C403.938 33.6615 393.689 23.4118 381.082 16.9882L377.904 23.2253ZM113.664 16.6857V9.68568C96.9782 9.68568 84.0427 9.68024 73.6864 10.5264C63.2484 11.3792 54.8156 13.1318 47.2469 16.9882L50.4249 23.2253L53.6028 29.4623C58.8689 26.7791 65.2542 25.262 74.8264 24.4799C84.4804 23.6911 96.7472 23.6857 113.664 23.6857V16.6857ZM17.6643 112.686H24.6643C24.6643 95.7686 24.6698 83.5018 25.4585 73.8478C26.2406 64.2756 27.7578 57.8903 30.441 52.6242L24.2039 49.4463L17.9669 46.2683C14.1105 53.8369 12.3578 62.2698 11.505 72.7078C10.6589 83.0641 10.6643 95.9996 10.6643 112.686H17.6643ZM50.4249 23.2253L47.2469 16.9882C34.6401 23.4118 24.3904 33.6615 17.9669 46.2683L24.2039 49.4463L30.441 52.6242C35.5222 42.6516 43.6302 34.5436 53.6028 29.4623L50.4249 23.2253Z" mask="url(#path-5-inside-3_2003_224)"/></clipPath><filter id="filter3_f_2003_224" x="0" y="0" width="429.504" height="884.33" filterUnits="userSpaceOnUse" color-interpolation-filters="sRGB">
<feFlood flood-opacity="0" result="BackgroundImageFix"/>
<feBlend mode="normal" in="SourceGraphic" in2="BackgroundImageFix" result="shape"/>
<feGaussianBlur stdDeviation="10" result="effect1_foregroundBlur_2003_224"/>
</filter>
<clipPath id="paint3_angular_2003_224_clip_path"><path d="M401.164 235.186L391.174 234.751L391.161 235.043L391.165 235.336L401.164 235.186ZM31.1643 432.186L41.1595 432.495L41.1693 432.178L41.159 431.861L31.1643 432.186ZM91.4884 28.6821L93.0923 18.8116L91.4884 28.6821ZM91.7998 28.7325L93.3779 18.8578L91.7998 28.7325ZM103.916 29.426L103.501 19.4346L103.916 29.426ZM103.601 29.4389L103.212 19.4465L103.601 29.4389ZM122.28 862.767L121.715 852.783L122.28 862.767ZM54.0519 859.343L49.7838 868.387V868.387L54.0519 859.343ZM26.0726 832.071L35.0038 827.573L26.0726 832.071ZM409.38 783.055L399.381 783.205L409.38 783.055ZM409.02 804.591L418.928 805.947L409.02 804.591ZM326.435 853.206L328.243 843.37L326.435 853.206ZM347.732 856.425L347.424 866.42L347.732 856.425ZM406.124 121.11L396.134 120.676L406.124 121.11ZM401.824 53.0701L392.834 57.4493L401.824 53.0701ZM306.231 21.0232L306.646 31.0146L306.231 21.0232ZM374.263 25.455L369.866 34.4367L374.263 25.455ZM324.024 852.775L325.631 842.905L324.024 852.775ZM309.768 852.161L310.333 862.145L309.768 852.161ZM312.214 852.035L312.575 862.028L312.214 852.035ZM20.0029 88.1796L10.0034 88.2758L20.0029 88.1796ZM88.2678 28.1746L86.8899 38.0792L88.2678 28.1746ZM406.124 121.11L396.134 120.676L391.174 234.751L401.164 235.186L411.155 235.62L416.115 121.545L406.124 121.11ZM401.164 235.186L391.165 235.336L399.381 783.205L409.38 783.055L419.379 782.906L411.163 235.036L401.164 235.186ZM309.768 852.161L309.203 842.177L121.715 852.783L122.28 862.767L122.845 872.751L310.333 862.145L309.768 852.161ZM20.9035 763.953L30.8987 764.262L41.1595 432.495L31.1643 432.186L21.1691 431.877L10.9082 763.644L20.9035 763.953ZM31.1643 432.186L41.159 431.861L30.0878 91.1138L20.0931 91.4385L10.0984 91.7633L21.1696 432.51L31.1643 432.186ZM103.916 29.426L104.331 39.4174L306.646 31.0146L306.231 21.0232L305.816 11.0318L103.501 19.4346L103.916 29.426ZM91.4884 28.6821L89.8844 38.5526C90.0354 38.5772 90.1281 38.5922 90.2218 38.6072L91.7998 28.7325L93.3779 18.8578C93.316 18.8479 93.253 18.8377 93.0923 18.8116L91.4884 28.6821ZM103.916 29.426L103.501 19.4346C103.338 19.4414 103.274 19.444 103.212 19.4465L103.601 29.4389L103.989 39.4314C104.084 39.4277 104.178 39.4238 104.331 39.4174L103.916 29.426ZM91.7998 28.7325L90.2218 38.6072C94.7727 39.3345 99.3842 39.6105 103.989 39.4314L103.601 29.4389L103.212 19.4465C99.9225 19.5745 96.6285 19.3773 93.3779 18.8578L91.7998 28.7325ZM122.28 862.767L121.715 852.783C103.394 853.82 90.2766 854.553 80 854.268C69.8302 853.986 63.4226 852.708 58.3199 850.3L54.0519 859.343L49.7838 868.387C58.463 872.483 68.0206 873.943 79.4451 874.261C90.7626 874.575 104.868 873.768 122.845 872.751L122.28 862.767ZM20.9035 763.953L10.9082 763.644C10.3516 781.641 9.90655 795.762 10.5102 807.068C11.1196 818.48 12.8244 827.998 17.1413 836.569L26.0726 832.071L35.0038 827.573C32.4658 822.533 31.0242 816.161 30.4818 806.001C29.9336 795.735 30.3314 782.603 30.8987 764.262L20.9035 763.953ZM54.0519 859.343L58.3199 850.3C48.2299 845.538 40.0225 837.538 35.0038 827.573L26.0726 832.071L17.1413 836.569C24.1674 850.52 35.6578 861.72 49.7838 868.387L54.0519 859.343ZM409.38 783.055L399.381 783.205C399.558 794.958 399.599 799.681 399.112 803.235L409.02 804.591L418.928 805.947C419.673 800.505 419.543 793.869 419.379 782.906L409.38 783.055ZM326.435 853.206L324.628 863.041C335.412 865.023 341.934 866.252 347.424 866.42L347.732 856.425L348.039 846.43C344.454 846.32 339.803 845.495 328.243 843.37L326.435 853.206ZM409.02 804.591L399.112 803.235C395.643 828.578 373.606 847.216 348.039 846.43L347.732 856.425L347.424 866.42C383.219 867.52 414.071 841.427 418.928 805.947L409.02 804.591ZM406.124 121.11L416.115 121.545C416.895 103.596 417.516 89.5124 417.056 78.2226C416.591 66.8255 415.01 57.305 410.815 48.691L401.824 53.0701L392.834 57.4493C395.302 62.5147 396.659 68.894 397.072 79.0371C397.49 89.2874 396.929 102.384 396.134 120.676L406.124 121.11ZM306.231 21.0232L306.646 31.0146C324.939 30.2548 338.037 29.7191 348.287 30.1568C358.429 30.5899 364.806 31.9594 369.866 34.4367L374.263 25.455L378.659 16.4733C370.054 12.2608 360.536 10.6617 349.14 10.175C337.851 9.69293 323.766 10.2863 305.816 11.0318L306.231 21.0232ZM401.824 53.0701L410.815 48.691C403.985 34.6695 392.668 23.3305 378.659 16.4733L374.263 25.455L369.866 34.4367C379.872 39.3346 387.956 47.4339 392.834 57.4493L401.824 53.0701ZM326.435 853.206L328.243 843.37C327.075 843.156 326.358 843.024 325.631 842.905L324.024 852.775L322.417 862.645C322.897 862.723 323.385 862.813 324.628 863.041L326.435 853.206ZM309.768 852.161L310.333 862.145C311.595 862.073 312.09 862.046 312.575 862.028L312.214 852.035L311.853 842.041C311.117 842.068 310.389 842.11 309.203 842.177L309.768 852.161ZM324.024 852.775L325.631 842.905C321.078 842.164 316.463 841.875 311.853 842.041L312.214 852.035L312.575 862.028C315.868 861.909 319.165 862.116 322.417 862.645L324.024 852.775ZM20.0931 91.4385L30.0878 91.1138C30.0302 89.339 30.0076 88.6252 30.0024 88.0834L20.0029 88.1796L10.0034 88.2758C10.0113 89.1055 10.0446 90.1071 10.0984 91.7633L20.0931 91.4385ZM91.4884 28.6821L93.0923 18.8116C91.4567 18.5458 90.4675 18.3844 89.6458 18.27L88.2678 28.1746L86.8899 38.0792C87.4265 38.1539 88.1316 38.2678 89.8844 38.5526L91.4884 28.6821ZM20.0029 88.1796L30.0024 88.0834C29.7085 57.5372 56.6337 33.8699 86.8899 38.0792L88.2678 28.1746L89.6458 18.27C47.2871 12.377 9.59185 45.5112 10.0034 88.2758L20.0029 88.1796Z" mask="url(#path-7-inside-4_2003_224)"/></clipPath></defs>
</g>
</svg>
