<svg width="1768" height="1157" viewBox="0 0 1768 1157" preserveAspectRatio="none" fill="none" xmlns="http://www.w3.org/2000/svg">
<g filter="url(#filter0_f_1_32)">
<mask id="path-1-inside-1_1_32" fill="white">
<path d="M20 20H1748V1137H20V20Z"/>
</mask>
<g clip-path="url(#paint0_angular_1_32_clip_path)" data-figma-skip-parse="true" mask="url(#path-1-inside-1_1_32)"><g transform="matrix(0 0.5585 -1.09266 0 884 578.5)"><foreignObject x="-1007.16" y="-1007.16" width="2014.32" height="2014.32"><div xmlns="http://www.w3.org/1999/xhtml" style="background:conic-gradient(from 90deg,rgba(195, 133, 251, 1) 0deg,rgba(188, 130, 243, 1) 60.2401deg,rgba(244, 185, 234, 1) 85.1532deg,rgba(141, 152, 255, 1) 126.663deg,rgba(170, 110, 238, 1) 209.329deg,rgba(255, 103, 119, 1) 250.911deg,rgba(255, 186, 113, 1) 291.415deg,rgba(198, 134, 255, 1) 332.659deg,rgba(195, 133, 251, 1) 360deg);height:100%;width:100%;opacity:1"></div></foreignObject></g></g><path d="M20 20V16H16V20H20ZM1748 20H1752V16H1748V20ZM1748 1137V1141H1752V1137H1748ZM20 1137H16V1141H20V1137ZM20 24H1748V16H20V24ZM1744 20V1137H1752V20H1744ZM1748 1133H20V1141H1748V1133ZM24 1137V20H16V1137H24Z" data-figma-gradient-fill="{&#34;type&#34;:&#34;GRADIENT_ANGULAR&#34;,&#34;stops&#34;:[{&#34;color&#34;:{&#34;r&#34;:0.73725491762161255,&#34;g&#34;:0.50980395078659058,&#34;b&#34;:0.95294117927551270,&#34;a&#34;:1.0},&#34;position&#34;:0.16733372211456299},{&#34;color&#34;:{&#34;r&#34;:0.95904946327209473,&#34;g&#34;:0.72734165191650391,&#34;b&#34;:0.91948962211608887,&#34;a&#34;:1.0},&#34;position&#34;:0.23653654754161835},{&#34;color&#34;:{&#34;r&#34;:0.55441081523895264,&#34;g&#34;:0.59937852621078491,&#34;b&#34;:1.0,&#34;a&#34;:1.0},&#34;position&#34;:0.35184183716773987},{&#34;color&#34;:{&#34;r&#34;:0.66666668653488159,&#34;g&#34;:0.43137255311012268,&#34;b&#34;:0.93333333730697632,&#34;a&#34;:1.0},&#34;position&#34;:0.58146977424621582},{&#34;color&#34;:{&#34;r&#34;:1.0,&#34;g&#34;:0.40445962548255920,&#34;b&#34;:0.46972432732582092,&#34;a&#34;:1.0},&#34;position&#34;:0.69697558879852295},{&#34;color&#34;:{&#34;r&#34;:1.0,&#34;g&#34;:0.73015475273132324,&#34;b&#34;:0.44365233182907104,&#34;a&#34;:1.0},&#34;position&#34;:0.80948722362518311},{&#34;color&#34;:{&#34;r&#34;:0.77719807624816895,&#34;g&#34;:0.52703452110290527,&#34;b&#34;:1.0,&#34;a&#34;:1.0},&#34;position&#34;:0.92405146360397339}],&#34;stopsVar&#34;:[{&#34;color&#34;:{&#34;r&#34;:0.73725491762161255,&#34;g&#34;:0.50980395078659058,&#34;b&#34;:0.95294117927551270,&#34;a&#34;:1.0},&#34;position&#34;:0.16733372211456299},{&#34;color&#34;:{&#34;r&#34;:0.95904946327209473,&#34;g&#34;:0.72734165191650391,&#34;b&#34;:0.91948962211608887,&#34;a&#34;:1.0},&#34;position&#34;:0.23653654754161835},{&#34;color&#34;:{&#34;r&#34;:0.55441081523895264,&#34;g&#34;:0.59937852621078491,&#34;b&#34;:1.0,&#34;a&#34;:1.0},&#34;position&#34;:0.35184183716773987},{&#34;color&#34;:{&#34;r&#34;:0.66666668653488159,&#34;g&#34;:0.43137255311012268,&#34;b&#34;:0.93333333730697632,&#34;a&#34;:1.0},&#34;position&#34;:0.58146977424621582},{&#34;color&#34;:{&#34;r&#34;:1.0,&#34;g&#34;:0.40445962548255920,&#34;b&#34;:0.46972432732582092,&#34;a&#34;:1.0},&#34;position&#34;:0.69697558879852295},{&#34;color&#34;:{&#34;r&#34;:1.0,&#34;g&#34;:0.73015475273132324,&#34;b&#34;:0.44365233182907104,&#34;a&#34;:1.0},&#34;position&#34;:0.80948722362518311},{&#34;color&#34;:{&#34;r&#34;:0.77719807624816895,&#34;g&#34;:0.52703452110290527,&#34;b&#34;:1.0,&#34;a&#34;:1.0},&#34;position&#34;:0.92405146360397339}],&#34;transform&#34;:{&#34;m00&#34;:1.0580948552225966e-13,&#34;m01&#34;:-2185.3181152343750,&#34;m02&#34;:1976.6590576171875,&#34;m10&#34;:1117.0,&#34;m11&#34;:-3.7514127004464881e-14,&#34;m12&#34;:20.0},&#34;opacity&#34;:1.0,&#34;blendMode&#34;:&#34;NORMAL&#34;,&#34;visible&#34;:true}" mask="url(#path-1-inside-1_1_32)"/>
</g>
<g filter="url(#filter1_f_1_32)">
<mask id="path-3-inside-2_1_32" fill="white">
<path d="M20 20H1748V1137H20V20Z"/>
</mask>
<g clip-path="url(#paint1_angular_1_32_clip_path)" data-figma-skip-parse="true" mask="url(#path-3-inside-2_1_32)"><g transform="matrix(0 0.5585 -1.09266 0 884 578.5)"><foreignObject x="-1013.43" y="-1013.43" width="2026.86" height="2026.86"><div xmlns="http://www.w3.org/1999/xhtml" style="background:conic-gradient(from 90deg,rgba(195, 133, 251, 1) 0deg,rgba(188, 130, 243, 1) 60.2401deg,rgba(244, 185, 234, 1) 85.1532deg,rgba(141, 152, 255, 1) 126.663deg,rgba(170, 110, 238, 1) 209.329deg,rgba(255, 103, 119, 1) 250.911deg,rgba(255, 186, 113, 1) 291.415deg,rgba(198, 134, 255, 1) 332.659deg,rgba(195, 133, 251, 1) 360deg);height:100%;width:100%;opacity:1"></div></foreignObject></g></g><path d="M20 20V12.5H12.5V20H20ZM1748 20H1755.5V12.5H1748V20ZM1748 1137V1144.5H1755.5V1137H1748ZM20 1137H12.5V1144.5H20V1137ZM20 27.5H1748V12.5H20V27.5ZM1740.5 20V1137H1755.5V20H1740.5ZM1748 1129.5H20V1144.5H1748V1129.5ZM27.5 1137V20H12.5V1137H27.5Z" data-figma-gradient-fill="{&#34;type&#34;:&#34;GRADIENT_ANGULAR&#34;,&#34;stops&#34;:[{&#34;color&#34;:{&#34;r&#34;:0.73725491762161255,&#34;g&#34;:0.50980395078659058,&#34;b&#34;:0.95294117927551270,&#34;a&#34;:1.0},&#34;position&#34;:0.16733372211456299},{&#34;color&#34;:{&#34;r&#34;:0.95904946327209473,&#34;g&#34;:0.72734165191650391,&#34;b&#34;:0.91948962211608887,&#34;a&#34;:1.0},&#34;position&#34;:0.23653654754161835},{&#34;color&#34;:{&#34;r&#34;:0.55441081523895264,&#34;g&#34;:0.59937852621078491,&#34;b&#34;:1.0,&#34;a&#34;:1.0},&#34;position&#34;:0.35184183716773987},{&#34;color&#34;:{&#34;r&#34;:0.66666668653488159,&#34;g&#34;:0.43137255311012268,&#34;b&#34;:0.93333333730697632,&#34;a&#34;:1.0},&#34;position&#34;:0.58146977424621582},{&#34;color&#34;:{&#34;r&#34;:1.0,&#34;g&#34;:0.40445962548255920,&#34;b&#34;:0.46972432732582092,&#34;a&#34;:1.0},&#34;position&#34;:0.69697558879852295},{&#34;color&#34;:{&#34;r&#34;:1.0,&#34;g&#34;:0.73015475273132324,&#34;b&#34;:0.44365233182907104,&#34;a&#34;:1.0},&#34;position&#34;:0.80948722362518311},{&#34;color&#34;:{&#34;r&#34;:0.77719807624816895,&#34;g&#34;:0.52703452110290527,&#34;b&#34;:1.0,&#34;a&#34;:1.0},&#34;position&#34;:0.92405146360397339}],&#34;stopsVar&#34;:[{&#34;color&#34;:{&#34;r&#34;:0.73725491762161255,&#34;g&#34;:0.50980395078659058,&#34;b&#34;:0.95294117927551270,&#34;a&#34;:1.0},&#34;position&#34;:0.16733372211456299},{&#34;color&#34;:{&#34;r&#34;:0.95904946327209473,&#34;g&#34;:0.72734165191650391,&#34;b&#34;:0.91948962211608887,&#34;a&#34;:1.0},&#34;position&#34;:0.23653654754161835},{&#34;color&#34;:{&#34;r&#34;:0.55441081523895264,&#34;g&#34;:0.59937852621078491,&#34;b&#34;:1.0,&#34;a&#34;:1.0},&#34;position&#34;:0.35184183716773987},{&#34;color&#34;:{&#34;r&#34;:0.66666668653488159,&#34;g&#34;:0.43137255311012268,&#34;b&#34;:0.93333333730697632,&#34;a&#34;:1.0},&#34;position&#34;:0.58146977424621582},{&#34;color&#34;:{&#34;r&#34;:1.0,&#34;g&#34;:0.40445962548255920,&#34;b&#34;:0.46972432732582092,&#34;a&#34;:1.0},&#34;position&#34;:0.69697558879852295},{&#34;color&#34;:{&#34;r&#34;:1.0,&#34;g&#34;:0.73015475273132324,&#34;b&#34;:0.44365233182907104,&#34;a&#34;:1.0},&#34;position&#34;:0.80948722362518311},{&#34;color&#34;:{&#34;r&#34;:0.77719807624816895,&#34;g&#34;:0.52703452110290527,&#34;b&#34;:1.0,&#34;a&#34;:1.0},&#34;position&#34;:0.92405146360397339}],&#34;transform&#34;:{&#34;m00&#34;:1.0580948552225966e-13,&#34;m01&#34;:-2185.3181152343750,&#34;m02&#34;:1976.6590576171875,&#34;m10&#34;:1117.0,&#34;m11&#34;:-3.7514127004464881e-14,&#34;m12&#34;:20.0},&#34;opacity&#34;:1.0,&#34;blendMode&#34;:&#34;NORMAL&#34;,&#34;visible&#34;:true}" mask="url(#path-3-inside-2_1_32)"/>
</g>
<g filter="url(#filter2_f_1_32)">
<mask id="path-5-inside-3_1_32" fill="white">
<path d="M20 20H1748V1137H20V20Z"/>
</mask>
<g clip-path="url(#paint2_angular_1_32_clip_path)" data-figma-skip-parse="true" mask="url(#path-5-inside-3_1_32)"><g transform="matrix(0 0.5585 -1.09266 0 884 578.5)"><foreignObject x="-1018.8" y="-1018.8" width="2037.6" height="2037.6"><div xmlns="http://www.w3.org/1999/xhtml" style="background:conic-gradient(from 90deg,rgba(195, 133, 251, 1) 0deg,rgba(188, 130, 243, 1) 60.2401deg,rgba(244, 185, 234, 1) 85.1532deg,rgba(141, 152, 255, 1) 126.663deg,rgba(170, 110, 238, 1) 209.329deg,rgba(255, 103, 119, 1) 250.911deg,rgba(255, 186, 113, 1) 291.415deg,rgba(198, 134, 255, 1) 332.659deg,rgba(195, 133, 251, 1) 360deg);height:100%;width:100%;opacity:1"></div></foreignObject></g></g><path d="M20 20V9.5H9.5V20H20ZM1748 20H1758.5V9.5H1748V20ZM1748 1137V1147.5H1758.5V1137H1748ZM20 1137H9.5V1147.5H20V1137ZM20 30.5H1748V9.5H20V30.5ZM1737.5 20V1137H1758.5V20H1737.5ZM1748 1126.5H20V1147.5H1748V1126.5ZM30.5 1137V20H9.5V1137H30.5Z" data-figma-gradient-fill="{&#34;type&#34;:&#34;GRADIENT_ANGULAR&#34;,&#34;stops&#34;:[{&#34;color&#34;:{&#34;r&#34;:0.73725491762161255,&#34;g&#34;:0.50980395078659058,&#34;b&#34;:0.95294117927551270,&#34;a&#34;:1.0},&#34;position&#34;:0.16733372211456299},{&#34;color&#34;:{&#34;r&#34;:0.95904946327209473,&#34;g&#34;:0.72734165191650391,&#34;b&#34;:0.91948962211608887,&#34;a&#34;:1.0},&#34;position&#34;:0.23653654754161835},{&#34;color&#34;:{&#34;r&#34;:0.55441081523895264,&#34;g&#34;:0.59937852621078491,&#34;b&#34;:1.0,&#34;a&#34;:1.0},&#34;position&#34;:0.35184183716773987},{&#34;color&#34;:{&#34;r&#34;:0.66666668653488159,&#34;g&#34;:0.43137255311012268,&#34;b&#34;:0.93333333730697632,&#34;a&#34;:1.0},&#34;position&#34;:0.58146977424621582},{&#34;color&#34;:{&#34;r&#34;:1.0,&#34;g&#34;:0.40445962548255920,&#34;b&#34;:0.46972432732582092,&#34;a&#34;:1.0},&#34;position&#34;:0.69697558879852295},{&#34;color&#34;:{&#34;r&#34;:1.0,&#34;g&#34;:0.73015475273132324,&#34;b&#34;:0.44365233182907104,&#34;a&#34;:1.0},&#34;position&#34;:0.80948722362518311},{&#34;color&#34;:{&#34;r&#34;:0.77719807624816895,&#34;g&#34;:0.52703452110290527,&#34;b&#34;:1.0,&#34;a&#34;:1.0},&#34;position&#34;:0.92405146360397339}],&#34;stopsVar&#34;:[{&#34;color&#34;:{&#34;r&#34;:0.73725491762161255,&#34;g&#34;:0.50980395078659058,&#34;b&#34;:0.95294117927551270,&#34;a&#34;:1.0},&#34;position&#34;:0.16733372211456299},{&#34;color&#34;:{&#34;r&#34;:0.95904946327209473,&#34;g&#34;:0.72734165191650391,&#34;b&#34;:0.91948962211608887,&#34;a&#34;:1.0},&#34;position&#34;:0.23653654754161835},{&#34;color&#34;:{&#34;r&#34;:0.55441081523895264,&#34;g&#34;:0.59937852621078491,&#34;b&#34;:1.0,&#34;a&#34;:1.0},&#34;position&#34;:0.35184183716773987},{&#34;color&#34;:{&#34;r&#34;:0.66666668653488159,&#34;g&#34;:0.43137255311012268,&#34;b&#34;:0.93333333730697632,&#34;a&#34;:1.0},&#34;position&#34;:0.58146977424621582},{&#34;color&#34;:{&#34;r&#34;:1.0,&#34;g&#34;:0.40445962548255920,&#34;b&#34;:0.46972432732582092,&#34;a&#34;:1.0},&#34;position&#34;:0.69697558879852295},{&#34;color&#34;:{&#34;r&#34;:1.0,&#34;g&#34;:0.73015475273132324,&#34;b&#34;:0.44365233182907104,&#34;a&#34;:1.0},&#34;position&#34;:0.80948722362518311},{&#34;color&#34;:{&#34;r&#34;:0.77719807624816895,&#34;g&#34;:0.52703452110290527,&#34;b&#34;:1.0,&#34;a&#34;:1.0},&#34;position&#34;:0.92405146360397339}],&#34;transform&#34;:{&#34;m00&#34;:1.0580948552225966e-13,&#34;m01&#34;:-2185.3181152343750,&#34;m02&#34;:1976.6590576171875,&#34;m10&#34;:1117.0,&#34;m11&#34;:-3.7514127004464881e-14,&#34;m12&#34;:20.0},&#34;opacity&#34;:1.0,&#34;blendMode&#34;:&#34;NORMAL&#34;,&#34;visible&#34;:true}" mask="url(#path-5-inside-3_1_32)"/>
</g>
<g filter="url(#filter3_f_1_32)" style="mix-blend-mode:hard-light">
<mask id="path-7-inside-4_1_32" fill="white">
<path d="M20 20L875.206 32.4548L1748 20L1739.5 583L1748 1137L369.557 1125.2L20 1137L31 579.5L20 20Z"/>
</mask>
<g clip-path="url(#paint3_angular_1_32_clip_path)" data-figma-skip-parse="true" mask="url(#path-7-inside-4_1_32)"><g transform="matrix(0 0.5585 -1.09266 0 884 578.5)"><foreignObject x="-1026.86" y="-1026.86" width="2053.72" height="2053.72"><div xmlns="http://www.w3.org/1999/xhtml" style="background:conic-gradient(from 90deg,rgba(195, 133, 251, 1) 0deg,rgba(188, 130, 243, 1) 60.2401deg,rgba(244, 185, 234, 1) 85.1532deg,rgba(141, 152, 255, 1) 126.663deg,rgba(170, 110, 238, 1) 209.329deg,rgba(255, 103, 119, 1) 250.911deg,rgba(255, 186, 113, 1) 291.415deg,rgba(198, 134, 255, 1) 332.659deg,rgba(195, 133, 251, 1) 360deg);height:100%;width:100%;opacity:1"></div></foreignObject></g></g><path d="M20 20L20.2184 5.00159L4.69778 4.77556L5.0029 20.2948L20 20ZM1748 20L1763 20.2264L1763.23 4.78112L1747.79 5.00153L1748 20ZM1748 1137L1747.87 1152L1763.23 1152.13L1763 1136.77L1748 1137ZM20 1137L5.00292 1136.7L4.69075 1152.53L20.506 1151.99L20 1137ZM875.206 32.4548L874.988 47.4532L875.204 47.4564L875.42 47.4533L875.206 32.4548ZM1739.5 583L1724.5 582.774L1724.5 583.002L1724.5 583.23L1739.5 583ZM369.557 1125.2L369.686 1110.2L369.368 1110.2L369.051 1110.21L369.557 1125.2ZM31 579.5L45.9971 579.796L46.0029 579.501L45.9971 579.205L31 579.5ZM19.7816 34.9984L874.988 47.4532L875.424 17.4564L20.2184 5.00159L19.7816 34.9984ZM875.42 47.4533L1748.21 34.9985L1747.79 5.00153L874.992 17.4563L875.42 47.4533ZM1733 19.7736L1724.5 582.774L1754.5 583.226L1763 20.2264L1733 19.7736ZM1724.5 583.23L1733 1137.23L1763 1136.77L1754.5 582.77L1724.5 583.23ZM1748.13 1122L369.686 1110.2L369.429 1140.2L1747.87 1152L1748.13 1122ZM369.051 1110.21L19.494 1122.01L20.506 1151.99L370.063 1140.19L369.051 1110.21ZM34.9971 1137.3L45.9971 579.796L16.0029 579.204L5.00292 1136.7L34.9971 1137.3ZM45.9971 579.205L34.9971 19.7052L5.0029 20.2948L16.0029 579.795L45.9971 579.205Z" data-figma-gradient-fill="{&#34;type&#34;:&#34;GRADIENT_ANGULAR&#34;,&#34;stops&#34;:[{&#34;color&#34;:{&#34;r&#34;:0.73725491762161255,&#34;g&#34;:0.50980395078659058,&#34;b&#34;:0.95294117927551270,&#34;a&#34;:1.0},&#34;position&#34;:0.16733372211456299},{&#34;color&#34;:{&#34;r&#34;:0.95904946327209473,&#34;g&#34;:0.72734165191650391,&#34;b&#34;:0.91948962211608887,&#34;a&#34;:1.0},&#34;position&#34;:0.23653654754161835},{&#34;color&#34;:{&#34;r&#34;:0.55441081523895264,&#34;g&#34;:0.59937852621078491,&#34;b&#34;:1.0,&#34;a&#34;:1.0},&#34;position&#34;:0.35184183716773987},{&#34;color&#34;:{&#34;r&#34;:0.66666668653488159,&#34;g&#34;:0.43137255311012268,&#34;b&#34;:0.93333333730697632,&#34;a&#34;:1.0},&#34;position&#34;:0.58146977424621582},{&#34;color&#34;:{&#34;r&#34;:1.0,&#34;g&#34;:0.40445962548255920,&#34;b&#34;:0.46972432732582092,&#34;a&#34;:1.0},&#34;position&#34;:0.69697558879852295},{&#34;color&#34;:{&#34;r&#34;:1.0,&#34;g&#34;:0.73015475273132324,&#34;b&#34;:0.44365233182907104,&#34;a&#34;:1.0},&#34;position&#34;:0.80948722362518311},{&#34;color&#34;:{&#34;r&#34;:0.77719807624816895,&#34;g&#34;:0.52703452110290527,&#34;b&#34;:1.0,&#34;a&#34;:1.0},&#34;position&#34;:0.92405146360397339}],&#34;stopsVar&#34;:[{&#34;color&#34;:{&#34;r&#34;:0.73725491762161255,&#34;g&#34;:0.50980395078659058,&#34;b&#34;:0.95294117927551270,&#34;a&#34;:1.0},&#34;position&#34;:0.16733372211456299},{&#34;color&#34;:{&#34;r&#34;:0.95904946327209473,&#34;g&#34;:0.72734165191650391,&#34;b&#34;:0.91948962211608887,&#34;a&#34;:1.0},&#34;position&#34;:0.23653654754161835},{&#34;color&#34;:{&#34;r&#34;:0.55441081523895264,&#34;g&#34;:0.59937852621078491,&#34;b&#34;:1.0,&#34;a&#34;:1.0},&#34;position&#34;:0.35184183716773987},{&#34;color&#34;:{&#34;r&#34;:0.66666668653488159,&#34;g&#34;:0.43137255311012268,&#34;b&#34;:0.93333333730697632,&#34;a&#34;:1.0},&#34;position&#34;:0.58146977424621582},{&#34;color&#34;:{&#34;r&#34;:1.0,&#34;g&#34;:0.40445962548255920,&#34;b&#34;:0.46972432732582092,&#34;a&#34;:1.0},&#34;position&#34;:0.69697558879852295},{&#34;color&#34;:{&#34;r&#34;:1.0,&#34;g&#34;:0.73015475273132324,&#34;b&#34;:0.44365233182907104,&#34;a&#34;:1.0},&#34;position&#34;:0.80948722362518311},{&#34;color&#34;:{&#34;r&#34;:0.77719807624816895,&#34;g&#34;:0.52703452110290527,&#34;b&#34;:1.0,&#34;a&#34;:1.0},&#34;position&#34;:0.92405146360397339}],&#34;transform&#34;:{&#34;m00&#34;:1.0580948552225966e-13,&#34;m01&#34;:-2185.3181152343750,&#34;m02&#34;:1976.6590576171875,&#34;m10&#34;:1117.0,&#34;m11&#34;:-3.7514127004464881e-14,&#34;m12&#34;:20.0},&#34;opacity&#34;:1.0,&#34;blendMode&#34;:&#34;NORMAL&#34;,&#34;visible&#34;:true}" mask="url(#path-7-inside-4_1_32)"/>
</g>
<defs>
<filter id="filter0_f_1_32" x="18" y="18" width="1732" height="1121" filterUnits="userSpaceOnUse" color-interpolation-filters="sRGB">
<feFlood flood-opacity="0" result="BackgroundImageFix"/>
<feBlend mode="normal" in="SourceGraphic" in2="BackgroundImageFix" result="shape"/>
<feGaussianBlur stdDeviation="1" result="effect1_foregroundBlur_1_32"/>
</filter>
<clipPath id="paint0_angular_1_32_clip_path"><path d="M20 20V16H16V20H20ZM1748 20H1752V16H1748V20ZM1748 1137V1141H1752V1137H1748ZM20 1137H16V1141H20V1137ZM20 24H1748V16H20V24ZM1744 20V1137H1752V20H1744ZM1748 1133H20V1141H1748V1133ZM24 1137V20H16V1137H24Z"/></clipPath><filter id="filter1_f_1_32" x="16" y="16" width="1736" height="1125" filterUnits="userSpaceOnUse" color-interpolation-filters="sRGB">
<feFlood flood-opacity="0" result="BackgroundImageFix"/>
<feBlend mode="normal" in="SourceGraphic" in2="BackgroundImageFix" result="shape"/>
<feGaussianBlur stdDeviation="2" result="effect1_foregroundBlur_1_32"/>
</filter>
<clipPath id="paint1_angular_1_32_clip_path"><path d="M20 20V12.5H12.5V20H20ZM1748 20H1755.5V12.5H1748V20ZM1748 1137V1144.5H1755.5V1137H1748ZM20 1137H12.5V1144.5H20V1137ZM20 27.5H1748V12.5H20V27.5ZM1740.5 20V1137H1755.5V20H1740.5ZM1748 1129.5H20V1144.5H1748V1129.5ZM27.5 1137V20H12.5V1137H27.5Z"/></clipPath><filter id="filter2_f_1_32" x="10" y="10" width="1748" height="1137" filterUnits="userSpaceOnUse" color-interpolation-filters="sRGB">
<feFlood flood-opacity="0" result="BackgroundImageFix"/>
<feBlend mode="normal" in="SourceGraphic" in2="BackgroundImageFix" result="shape"/>
<feGaussianBlur stdDeviation="5" result="effect1_foregroundBlur_1_32"/>
</filter>
<clipPath id="paint2_angular_1_32_clip_path"><path d="M20 20V9.5H9.5V20H20ZM1748 20H1758.5V9.5H1748V20ZM1748 1137V1147.5H1758.5V1137H1748ZM20 1137H9.5V1147.5H20V1137ZM20 30.5H1748V9.5H20V30.5ZM1737.5 20V1137H1758.5V20H1737.5ZM1748 1126.5H20V1147.5H1748V1126.5ZM30.5 1137V20H9.5V1137H30.5Z"/></clipPath><filter id="filter3_f_1_32" x="0" y="0" width="1768" height="1157" filterUnits="userSpaceOnUse" color-interpolation-filters="sRGB">
<feFlood flood-opacity="0" result="BackgroundImageFix"/>
<feBlend mode="normal" in="SourceGraphic" in2="BackgroundImageFix" result="shape"/>
<feGaussianBlur stdDeviation="10" result="effect1_foregroundBlur_1_32"/>
</filter>
<clipPath id="paint3_angular_1_32_clip_path"><path d="M20 20L20.2184 5.00159L4.69778 4.77556L5.0029 20.2948L20 20ZM1748 20L1763 20.2264L1763.23 4.78112L1747.79 5.00153L1748 20ZM1748 1137L1747.87 1152L1763.23 1152.13L1763 1136.77L1748 1137ZM20 1137L5.00292 1136.7L4.69075 1152.53L20.506 1151.99L20 1137ZM875.206 32.4548L874.988 47.4532L875.204 47.4564L875.42 47.4533L875.206 32.4548ZM1739.5 583L1724.5 582.774L1724.5 583.002L1724.5 583.23L1739.5 583ZM369.557 1125.2L369.686 1110.2L369.368 1110.2L369.051 1110.21L369.557 1125.2ZM31 579.5L45.9971 579.796L46.0029 579.501L45.9971 579.205L31 579.5ZM19.7816 34.9984L874.988 47.4532L875.424 17.4564L20.2184 5.00159L19.7816 34.9984ZM875.42 47.4533L1748.21 34.9985L1747.79 5.00153L874.992 17.4563L875.42 47.4533ZM1733 19.7736L1724.5 582.774L1754.5 583.226L1763 20.2264L1733 19.7736ZM1724.5 583.23L1733 1137.23L1763 1136.77L1754.5 582.77L1724.5 583.23ZM1748.13 1122L369.686 1110.2L369.429 1140.2L1747.87 1152L1748.13 1122ZM369.051 1110.21L19.494 1122.01L20.506 1151.99L370.063 1140.19L369.051 1110.21ZM34.9971 1137.3L45.9971 579.796L16.0029 579.204L5.00292 1136.7L34.9971 1137.3ZM45.9971 579.205L34.9971 19.7052L5.0029 20.2948L16.0029 579.795L45.9971 579.205Z"/></clipPath></defs>
</svg>
