<svg width="1768" height="1157" viewBox="0 0 1768 1157" preserveAspectRatio="none" fill="none" xmlns="http://www.w3.org/2000/svg">
<g filter="url(#filter0_f_1_37)">
<mask id="path-1-inside-1_1_37" fill="white">
<path d="M20 20H1748V1137H20V20Z"/>
</mask>
<g clip-path="url(#paint0_angular_1_37_clip_path)" data-figma-skip-parse="true" mask="url(#path-1-inside-1_1_37)"><g transform="matrix(0 0.5585 -1.09266 0 884 578.5)"><foreignObject x="-1007.16" y="-1007.16" width="2014.32" height="2014.32"><div xmlns="http://www.w3.org/1999/xhtml" style="background:conic-gradient(from 90deg,rgba(194, 132, 251, 1) 0deg,rgba(198, 134, 255, 1) 28.8deg,rgba(255, 186, 113, 1) 68.4deg,rgba(255, 103, 119, 1) 108deg,rgba(170, 110, 238, 1) 151.2deg,rgba(141, 152, 255, 1) 230.4deg,rgba(244, 185, 234, 1) 273.6deg,rgba(188, 130, 243, 1) 298.8deg,rgba(194, 132, 251, 1) 360deg);height:100%;width:100%;opacity:1"></div></foreignObject></g></g><path d="M20 20V16H16V20H20ZM1748 20H1752V16H1748V20ZM1748 1137V1141H1752V1137H1748ZM20 1137H16V1141H20V1137ZM20 24H1748V16H20V24ZM1744 20V1137H1752V20H1744ZM1748 1133H20V1141H1748V1133ZM24 1137V20H16V1137H24Z" data-figma-gradient-fill="{&#34;type&#34;:&#34;GRADIENT_ANGULAR&#34;,&#34;stops&#34;:[{&#34;color&#34;:{&#34;r&#34;:0.77719807624816895,&#34;g&#34;:0.52703452110290527,&#34;b&#34;:1.0,&#34;a&#34;:1.0},&#34;position&#34;:0.079999998211860657},{&#34;color&#34;:{&#34;r&#34;:1.0,&#34;g&#34;:0.73015475273132324,&#34;b&#34;:0.44365233182907104,&#34;a&#34;:1.0},&#34;position&#34;:0.18999999761581421},{&#34;color&#34;:{&#34;r&#34;:1.0,&#34;g&#34;:0.40445962548255920,&#34;b&#34;:0.46972432732582092,&#34;a&#34;:1.0},&#34;position&#34;:0.30000001192092896},{&#34;color&#34;:{&#34;r&#34;:0.66666668653488159,&#34;g&#34;:0.43137255311012268,&#34;b&#34;:0.93333333730697632,&#34;a&#34;:1.0},&#34;position&#34;:0.41999998688697815},{&#34;color&#34;:{&#34;r&#34;:0.55441081523895264,&#34;g&#34;:0.59937852621078491,&#34;b&#34;:1.0,&#34;a&#34;:1.0},&#34;position&#34;:0.63999998569488525},{&#34;color&#34;:{&#34;r&#34;:0.95904946327209473,&#34;g&#34;:0.72734165191650391,&#34;b&#34;:0.91948962211608887,&#34;a&#34;:1.0},&#34;position&#34;:0.75999999046325684},{&#34;color&#34;:{&#34;r&#34;:0.73725491762161255,&#34;g&#34;:0.50980395078659058,&#34;b&#34;:0.95294117927551270,&#34;a&#34;:1.0},&#34;position&#34;:0.82999998331069946}],&#34;stopsVar&#34;:[{&#34;color&#34;:{&#34;r&#34;:0.77719807624816895,&#34;g&#34;:0.52703452110290527,&#34;b&#34;:1.0,&#34;a&#34;:1.0},&#34;position&#34;:0.079999998211860657},{&#34;color&#34;:{&#34;r&#34;:1.0,&#34;g&#34;:0.73015475273132324,&#34;b&#34;:0.44365233182907104,&#34;a&#34;:1.0},&#34;position&#34;:0.18999999761581421},{&#34;color&#34;:{&#34;r&#34;:1.0,&#34;g&#34;:0.40445962548255920,&#34;b&#34;:0.46972432732582092,&#34;a&#34;:1.0},&#34;position&#34;:0.30000001192092896},{&#34;color&#34;:{&#34;r&#34;:0.66666668653488159,&#34;g&#34;:0.43137255311012268,&#34;b&#34;:0.93333333730697632,&#34;a&#34;:1.0},&#34;position&#34;:0.41999998688697815},{&#34;color&#34;:{&#34;r&#34;:0.55441081523895264,&#34;g&#34;:0.59937852621078491,&#34;b&#34;:1.0,&#34;a&#34;:1.0},&#34;position&#34;:0.63999998569488525},{&#34;color&#34;:{&#34;r&#34;:0.95904946327209473,&#34;g&#34;:0.72734165191650391,&#34;b&#34;:0.91948962211608887,&#34;a&#34;:1.0},&#34;position&#34;:0.75999999046325684},{&#34;color&#34;:{&#34;r&#34;:0.73725491762161255,&#34;g&#34;:0.50980395078659058,&#34;b&#34;:0.95294117927551270,&#34;a&#34;:1.0},&#34;position&#34;:0.82999998331069946}],&#34;transform&#34;:{&#34;m00&#34;:1.0580948552225966e-13,&#34;m01&#34;:-2185.3181152343750,&#34;m02&#34;:1976.6590576171875,&#34;m10&#34;:1117.0,&#34;m11&#34;:-3.7514127004464881e-14,&#34;m12&#34;:20.0},&#34;opacity&#34;:1.0,&#34;blendMode&#34;:&#34;NORMAL&#34;,&#34;visible&#34;:true}" mask="url(#path-1-inside-1_1_37)"/>
</g>
<g filter="url(#filter1_f_1_37)">
<mask id="path-3-inside-2_1_37" fill="white">
<path d="M20 20H1748V1137H20V20Z"/>
</mask>
<g clip-path="url(#paint1_angular_1_37_clip_path)" data-figma-skip-parse="true" mask="url(#path-3-inside-2_1_37)"><g transform="matrix(0 0.5585 -1.09266 0 884 578.5)"><foreignObject x="-1013.43" y="-1013.43" width="2026.86" height="2026.86"><div xmlns="http://www.w3.org/1999/xhtml" style="background:conic-gradient(from 90deg,rgba(194, 132, 251, 1) 0deg,rgba(198, 134, 255, 1) 28.8deg,rgba(255, 186, 113, 1) 68.4deg,rgba(255, 103, 119, 1) 108deg,rgba(170, 110, 238, 1) 151.2deg,rgba(141, 152, 255, 1) 230.4deg,rgba(244, 185, 234, 1) 273.6deg,rgba(188, 130, 243, 1) 298.8deg,rgba(194, 132, 251, 1) 360deg);height:100%;width:100%;opacity:1"></div></foreignObject></g></g><path d="M20 20V12.5H12.5V20H20ZM1748 20H1755.5V12.5H1748V20ZM1748 1137V1144.5H1755.5V1137H1748ZM20 1137H12.5V1144.5H20V1137ZM20 27.5H1748V12.5H20V27.5ZM1740.5 20V1137H1755.5V20H1740.5ZM1748 1129.5H20V1144.5H1748V1129.5ZM27.5 1137V20H12.5V1137H27.5Z" data-figma-gradient-fill="{&#34;type&#34;:&#34;GRADIENT_ANGULAR&#34;,&#34;stops&#34;:[{&#34;color&#34;:{&#34;r&#34;:0.77719807624816895,&#34;g&#34;:0.52703452110290527,&#34;b&#34;:1.0,&#34;a&#34;:1.0},&#34;position&#34;:0.079999998211860657},{&#34;color&#34;:{&#34;r&#34;:1.0,&#34;g&#34;:0.73015475273132324,&#34;b&#34;:0.44365233182907104,&#34;a&#34;:1.0},&#34;position&#34;:0.18999999761581421},{&#34;color&#34;:{&#34;r&#34;:1.0,&#34;g&#34;:0.40445962548255920,&#34;b&#34;:0.46972432732582092,&#34;a&#34;:1.0},&#34;position&#34;:0.30000001192092896},{&#34;color&#34;:{&#34;r&#34;:0.66666668653488159,&#34;g&#34;:0.43137255311012268,&#34;b&#34;:0.93333333730697632,&#34;a&#34;:1.0},&#34;position&#34;:0.41999998688697815},{&#34;color&#34;:{&#34;r&#34;:0.55441081523895264,&#34;g&#34;:0.59937852621078491,&#34;b&#34;:1.0,&#34;a&#34;:1.0},&#34;position&#34;:0.63999998569488525},{&#34;color&#34;:{&#34;r&#34;:0.95904946327209473,&#34;g&#34;:0.72734165191650391,&#34;b&#34;:0.91948962211608887,&#34;a&#34;:1.0},&#34;position&#34;:0.75999999046325684},{&#34;color&#34;:{&#34;r&#34;:0.73725491762161255,&#34;g&#34;:0.50980395078659058,&#34;b&#34;:0.95294117927551270,&#34;a&#34;:1.0},&#34;position&#34;:0.82999998331069946}],&#34;stopsVar&#34;:[{&#34;color&#34;:{&#34;r&#34;:0.77719807624816895,&#34;g&#34;:0.52703452110290527,&#34;b&#34;:1.0,&#34;a&#34;:1.0},&#34;position&#34;:0.079999998211860657},{&#34;color&#34;:{&#34;r&#34;:1.0,&#34;g&#34;:0.73015475273132324,&#34;b&#34;:0.44365233182907104,&#34;a&#34;:1.0},&#34;position&#34;:0.18999999761581421},{&#34;color&#34;:{&#34;r&#34;:1.0,&#34;g&#34;:0.40445962548255920,&#34;b&#34;:0.46972432732582092,&#34;a&#34;:1.0},&#34;position&#34;:0.30000001192092896},{&#34;color&#34;:{&#34;r&#34;:0.66666668653488159,&#34;g&#34;:0.43137255311012268,&#34;b&#34;:0.93333333730697632,&#34;a&#34;:1.0},&#34;position&#34;:0.41999998688697815},{&#34;color&#34;:{&#34;r&#34;:0.55441081523895264,&#34;g&#34;:0.59937852621078491,&#34;b&#34;:1.0,&#34;a&#34;:1.0},&#34;position&#34;:0.63999998569488525},{&#34;color&#34;:{&#34;r&#34;:0.95904946327209473,&#34;g&#34;:0.72734165191650391,&#34;b&#34;:0.91948962211608887,&#34;a&#34;:1.0},&#34;position&#34;:0.75999999046325684},{&#34;color&#34;:{&#34;r&#34;:0.73725491762161255,&#34;g&#34;:0.50980395078659058,&#34;b&#34;:0.95294117927551270,&#34;a&#34;:1.0},&#34;position&#34;:0.82999998331069946}],&#34;transform&#34;:{&#34;m00&#34;:1.0580948552225966e-13,&#34;m01&#34;:-2185.3181152343750,&#34;m02&#34;:1976.6590576171875,&#34;m10&#34;:1117.0,&#34;m11&#34;:-3.7514127004464881e-14,&#34;m12&#34;:20.0},&#34;opacity&#34;:1.0,&#34;blendMode&#34;:&#34;NORMAL&#34;,&#34;visible&#34;:true}" mask="url(#path-3-inside-2_1_37)"/>
</g>
<g filter="url(#filter2_f_1_37)">
<mask id="path-5-inside-3_1_37" fill="white">
<path d="M20 20H1748V1137H20V20Z"/>
</mask>
<g clip-path="url(#paint2_angular_1_37_clip_path)" data-figma-skip-parse="true" mask="url(#path-5-inside-3_1_37)"><g transform="matrix(0 0.5585 -1.09266 0 884 578.5)"><foreignObject x="-1018.8" y="-1018.8" width="2037.6" height="2037.6"><div xmlns="http://www.w3.org/1999/xhtml" style="background:conic-gradient(from 90deg,rgba(194, 132, 251, 1) 0deg,rgba(198, 134, 255, 1) 28.8deg,rgba(255, 186, 113, 1) 68.4deg,rgba(255, 103, 119, 1) 108deg,rgba(170, 110, 238, 1) 151.2deg,rgba(141, 152, 255, 1) 230.4deg,rgba(244, 185, 234, 1) 273.6deg,rgba(188, 130, 243, 1) 298.8deg,rgba(194, 132, 251, 1) 360deg);height:100%;width:100%;opacity:1"></div></foreignObject></g></g><path d="M20 20V9.5H9.5V20H20ZM1748 20H1758.5V9.5H1748V20ZM1748 1137V1147.5H1758.5V1137H1748ZM20 1137H9.5V1147.5H20V1137ZM20 30.5H1748V9.5H20V30.5ZM1737.5 20V1137H1758.5V20H1737.5ZM1748 1126.5H20V1147.5H1748V1126.5ZM30.5 1137V20H9.5V1137H30.5Z" data-figma-gradient-fill="{&#34;type&#34;:&#34;GRADIENT_ANGULAR&#34;,&#34;stops&#34;:[{&#34;color&#34;:{&#34;r&#34;:0.77719807624816895,&#34;g&#34;:0.52703452110290527,&#34;b&#34;:1.0,&#34;a&#34;:1.0},&#34;position&#34;:0.079999998211860657},{&#34;color&#34;:{&#34;r&#34;:1.0,&#34;g&#34;:0.73015475273132324,&#34;b&#34;:0.44365233182907104,&#34;a&#34;:1.0},&#34;position&#34;:0.18999999761581421},{&#34;color&#34;:{&#34;r&#34;:1.0,&#34;g&#34;:0.40445962548255920,&#34;b&#34;:0.46972432732582092,&#34;a&#34;:1.0},&#34;position&#34;:0.30000001192092896},{&#34;color&#34;:{&#34;r&#34;:0.66666668653488159,&#34;g&#34;:0.43137255311012268,&#34;b&#34;:0.93333333730697632,&#34;a&#34;:1.0},&#34;position&#34;:0.41999998688697815},{&#34;color&#34;:{&#34;r&#34;:0.55441081523895264,&#34;g&#34;:0.59937852621078491,&#34;b&#34;:1.0,&#34;a&#34;:1.0},&#34;position&#34;:0.63999998569488525},{&#34;color&#34;:{&#34;r&#34;:0.95904946327209473,&#34;g&#34;:0.72734165191650391,&#34;b&#34;:0.91948962211608887,&#34;a&#34;:1.0},&#34;position&#34;:0.75999999046325684},{&#34;color&#34;:{&#34;r&#34;:0.73725491762161255,&#34;g&#34;:0.50980395078659058,&#34;b&#34;:0.95294117927551270,&#34;a&#34;:1.0},&#34;position&#34;:0.82999998331069946}],&#34;stopsVar&#34;:[{&#34;color&#34;:{&#34;r&#34;:0.77719807624816895,&#34;g&#34;:0.52703452110290527,&#34;b&#34;:1.0,&#34;a&#34;:1.0},&#34;position&#34;:0.079999998211860657},{&#34;color&#34;:{&#34;r&#34;:1.0,&#34;g&#34;:0.73015475273132324,&#34;b&#34;:0.44365233182907104,&#34;a&#34;:1.0},&#34;position&#34;:0.18999999761581421},{&#34;color&#34;:{&#34;r&#34;:1.0,&#34;g&#34;:0.40445962548255920,&#34;b&#34;:0.46972432732582092,&#34;a&#34;:1.0},&#34;position&#34;:0.30000001192092896},{&#34;color&#34;:{&#34;r&#34;:0.66666668653488159,&#34;g&#34;:0.43137255311012268,&#34;b&#34;:0.93333333730697632,&#34;a&#34;:1.0},&#34;position&#34;:0.41999998688697815},{&#34;color&#34;:{&#34;r&#34;:0.55441081523895264,&#34;g&#34;:0.59937852621078491,&#34;b&#34;:1.0,&#34;a&#34;:1.0},&#34;position&#34;:0.63999998569488525},{&#34;color&#34;:{&#34;r&#34;:0.95904946327209473,&#34;g&#34;:0.72734165191650391,&#34;b&#34;:0.91948962211608887,&#34;a&#34;:1.0},&#34;position&#34;:0.75999999046325684},{&#34;color&#34;:{&#34;r&#34;:0.73725491762161255,&#34;g&#34;:0.50980395078659058,&#34;b&#34;:0.95294117927551270,&#34;a&#34;:1.0},&#34;position&#34;:0.82999998331069946}],&#34;transform&#34;:{&#34;m00&#34;:1.0580948552225966e-13,&#34;m01&#34;:-2185.3181152343750,&#34;m02&#34;:1976.6590576171875,&#34;m10&#34;:1117.0,&#34;m11&#34;:-3.7514127004464881e-14,&#34;m12&#34;:20.0},&#34;opacity&#34;:1.0,&#34;blendMode&#34;:&#34;NORMAL&#34;,&#34;visible&#34;:true}" mask="url(#path-5-inside-3_1_37)"/>
</g>
<g filter="url(#filter3_f_1_37)" style="mix-blend-mode:hard-light">
<mask id="path-7-inside-4_1_37" fill="white">
<path d="M20 20C20 20 459.905 34.3996 466.5 28.5C473.095 22.6004 1748 20 1748 20L1741.5 193.5V484.5V780.5L1748 1137L1431.5 1125.86H606.5L20 1137L32 958.5L20 549.002L32 142.5L20 20Z"/>
</mask>
<g clip-path="url(#paint3_angular_1_37_clip_path)" data-figma-skip-parse="true" mask="url(#path-7-inside-4_1_37)"><g transform="matrix(0 0.5585 -1.09266 0 884 578.5)"><foreignObject x="-1026.86" y="-1026.86" width="2053.72" height="2053.72"><div xmlns="http://www.w3.org/1999/xhtml" style="background:conic-gradient(from 90deg,rgba(194, 132, 251, 1) 0deg,rgba(198, 134, 255, 1) 28.8deg,rgba(255, 186, 113, 1) 68.4deg,rgba(255, 103, 119, 1) 108deg,rgba(170, 110, 238, 1) 151.2deg,rgba(141, 152, 255, 1) 230.4deg,rgba(244, 185, 234, 1) 273.6deg,rgba(188, 130, 243, 1) 298.8deg,rgba(194, 132, 251, 1) 360deg);height:100%;width:100%;opacity:1"></div></foreignObject></g></g><path d="M20 20L20.4907 5.00803L3.40481 4.44875L5.07146 21.4624L20 20ZM1748 20L1762.99 20.5616L1763.57 4.9682L1747.97 5.00003L1748 20ZM1748 1137L1747.47 1151.99L1763.29 1152.55L1763 1136.73L1748 1137ZM20 1137L5.03378 1135.99L3.93704 1152.31L20.285 1152L20 1137ZM1741.5 193.5L1726.51 192.938L1726.5 193.219V193.5H1741.5ZM1741.5 780.5H1726.5V780.637L1726.5 780.773L1741.5 780.5ZM1431.5 1125.86L1432.03 1110.87L1431.76 1110.86H1431.5V1125.86ZM32 958.5L46.9662 959.506L47.0148 958.784L46.9936 958.061L32 958.5ZM32 142.5L46.9935 142.943L47.0216 141.988L46.9285 141.038L32 142.5ZM20 549.002L5.00653 548.559L4.99351 549L5.00644 549.441L20 549.002ZM606.5 1125.86V1110.86H606.357L606.215 1110.86L606.5 1125.86ZM20 20C19.5093 34.992 19.511 34.992 19.5145 34.9921C19.5179 34.9923 19.523 34.9924 19.5298 34.9926C19.5433 34.9931 19.5634 34.9937 19.5902 34.9946C19.6438 34.9964 19.7238 34.999 19.8298 35.0024C20.0418 35.0094 20.3579 35.0197 20.7748 35.0332C21.6084 35.0603 22.8451 35.1004 24.4581 35.1525C27.6842 35.2566 32.4156 35.4085 38.4391 35.5997C50.4862 35.9821 67.7024 36.5217 88.382 37.1508C129.739 38.409 184.958 40.0253 240.389 41.4574C295.806 42.889 351.494 44.138 393.767 44.6596C414.884 44.9202 432.765 45.0008 445.623 44.8272C452.022 44.7409 457.368 44.5895 461.312 44.349C463.245 44.231 465.133 44.0752 466.749 43.8455C467.529 43.7346 468.594 43.5592 469.715 43.2624C469.997 43.1879 473.449 42.4094 476.5 39.6799L456.5 17.3201C458.233 15.7699 459.888 15.0439 460.464 14.8024C461.208 14.4901 461.788 14.3275 462.038 14.2612C462.537 14.1292 462.774 14.109 462.528 14.1439C462.093 14.2057 461.137 14.3039 459.486 14.4046C456.261 14.6013 451.48 14.7455 445.218 14.83C432.757 14.9982 415.188 14.9217 394.137 14.6619C352.073 14.1429 296.548 12.8982 241.164 11.4674C185.795 10.0369 130.625 8.42209 89.2943 7.1647C68.6298 6.53604 51.4269 5.9968 39.3909 5.61476C33.373 5.42374 28.6469 5.27203 25.4257 5.16808C23.8152 5.11611 22.5809 5.07608 21.7495 5.04905C21.3338 5.03553 21.0189 5.02527 20.808 5.01839C20.7025 5.01495 20.6231 5.01235 20.5701 5.01062C20.5435 5.00976 20.5237 5.00911 20.5104 5.00867C20.5038 5.00846 20.4989 5.0083 20.4956 5.00819C20.4923 5.00808 20.4907 5.00803 20 20ZM476.5 39.6799C474.261 41.6831 471.998 42.4437 471.675 42.5589C470.935 42.8232 470.36 42.956 470.147 43.0036C469.69 43.1052 469.446 43.1282 469.62 43.1062C469.897 43.0709 470.567 43.0044 471.778 42.9217C474.133 42.7609 477.703 42.5929 482.509 42.4229C492.074 42.0846 506.002 41.756 523.727 41.4385C559.149 40.804 609.436 40.219 669.651 39.6824C790.065 38.6093 950.018 37.7312 1109.79 37.0375C1269.55 36.3438 1429.11 35.8344 1548.74 35.4984C1608.55 35.3305 1658.37 35.2058 1693.24 35.1232C1710.68 35.0819 1724.38 35.0511 1733.71 35.0306C1738.38 35.0204 1741.96 35.0127 1744.37 35.0076C1745.58 35.0051 1746.49 35.0031 1747.11 35.0019C1747.41 35.0012 1747.64 35.0008 1747.8 35.0004C1747.88 35.0003 1747.93 35.0002 1747.97 35.0001C1747.99 35 1748.01 35 1748.02 35C1748.03 35 1748.03 35 1748 20C1747.97 5.00003 1747.96 5.00004 1747.95 5.00006C1747.95 5.00008 1747.93 5.00011 1747.91 5.00015C1747.87 5.00023 1747.81 5.00035 1747.74 5.00051C1747.58 5.00083 1747.35 5.0013 1747.04 5.00194C1746.43 5.00321 1745.52 5.00512 1744.31 5.00767C1741.9 5.01277 1738.32 5.02044 1733.65 5.03068C1724.31 5.05117 1710.61 5.08198 1693.17 5.1233C1658.3 5.20593 1608.47 5.33056 1548.65 5.49855C1429.02 5.83452 1269.44 6.34396 1109.66 7.03777C949.878 7.73157 789.868 8.60982 669.383 9.68356C609.148 10.2204 558.751 10.8064 523.189 11.4433C505.422 11.7616 491.283 12.0938 481.448 12.4417C476.554 12.6148 472.591 12.7963 469.734 12.9914C468.34 13.0866 466.985 13.1997 465.837 13.3456C465.298 13.4141 464.491 13.5281 463.625 13.7211C463.206 13.8144 462.464 13.993 461.595 14.3031C461.143 14.4643 458.79 15.2708 456.5 17.3201L476.5 39.6799ZM1733.01 19.4384L1726.51 192.938L1756.49 194.062L1762.99 20.5616L1733.01 19.4384ZM1726.5 780.773L1733 1137.27L1763 1136.73L1756.5 780.227L1726.5 780.773ZM1748.53 1122.01L1432.03 1110.87L1430.97 1140.85L1747.47 1151.99L1748.53 1122.01ZM34.9662 1138.01L46.9662 959.506L17.0338 957.494L5.03378 1135.99L34.9662 1138.01ZM46.9285 141.038L34.9285 18.5376L5.07146 21.4624L17.0715 143.962L46.9285 141.038ZM46.9936 958.061L34.9936 548.562L5.00644 549.441L17.0064 958.939L46.9936 958.061ZM34.9935 549.444L46.9935 142.943L17.0065 142.057L5.00653 548.559L34.9935 549.444ZM1431.5 1110.86H606.5V1140.86H1431.5V1110.86ZM606.215 1110.86L19.715 1122L20.285 1152L606.785 1140.85L606.215 1110.86ZM1726.5 193.5V484.5H1756.5V193.5H1726.5ZM1726.5 484.5V780.5H1756.5V484.5H1726.5Z" data-figma-gradient-fill="{&#34;type&#34;:&#34;GRADIENT_ANGULAR&#34;,&#34;stops&#34;:[{&#34;color&#34;:{&#34;r&#34;:0.77719807624816895,&#34;g&#34;:0.52703452110290527,&#34;b&#34;:1.0,&#34;a&#34;:1.0},&#34;position&#34;:0.079999998211860657},{&#34;color&#34;:{&#34;r&#34;:1.0,&#34;g&#34;:0.73015475273132324,&#34;b&#34;:0.44365233182907104,&#34;a&#34;:1.0},&#34;position&#34;:0.18999999761581421},{&#34;color&#34;:{&#34;r&#34;:1.0,&#34;g&#34;:0.40445962548255920,&#34;b&#34;:0.46972432732582092,&#34;a&#34;:1.0},&#34;position&#34;:0.30000001192092896},{&#34;color&#34;:{&#34;r&#34;:0.66666668653488159,&#34;g&#34;:0.43137255311012268,&#34;b&#34;:0.93333333730697632,&#34;a&#34;:1.0},&#34;position&#34;:0.41999998688697815},{&#34;color&#34;:{&#34;r&#34;:0.55441081523895264,&#34;g&#34;:0.59937852621078491,&#34;b&#34;:1.0,&#34;a&#34;:1.0},&#34;position&#34;:0.63999998569488525},{&#34;color&#34;:{&#34;r&#34;:0.95904946327209473,&#34;g&#34;:0.72734165191650391,&#34;b&#34;:0.91948962211608887,&#34;a&#34;:1.0},&#34;position&#34;:0.75999999046325684},{&#34;color&#34;:{&#34;r&#34;:0.73725491762161255,&#34;g&#34;:0.50980395078659058,&#34;b&#34;:0.95294117927551270,&#34;a&#34;:1.0},&#34;position&#34;:0.82999998331069946}],&#34;stopsVar&#34;:[{&#34;color&#34;:{&#34;r&#34;:0.77719807624816895,&#34;g&#34;:0.52703452110290527,&#34;b&#34;:1.0,&#34;a&#34;:1.0},&#34;position&#34;:0.079999998211860657},{&#34;color&#34;:{&#34;r&#34;:1.0,&#34;g&#34;:0.73015475273132324,&#34;b&#34;:0.44365233182907104,&#34;a&#34;:1.0},&#34;position&#34;:0.18999999761581421},{&#34;color&#34;:{&#34;r&#34;:1.0,&#34;g&#34;:0.40445962548255920,&#34;b&#34;:0.46972432732582092,&#34;a&#34;:1.0},&#34;position&#34;:0.30000001192092896},{&#34;color&#34;:{&#34;r&#34;:0.66666668653488159,&#34;g&#34;:0.43137255311012268,&#34;b&#34;:0.93333333730697632,&#34;a&#34;:1.0},&#34;position&#34;:0.41999998688697815},{&#34;color&#34;:{&#34;r&#34;:0.55441081523895264,&#34;g&#34;:0.59937852621078491,&#34;b&#34;:1.0,&#34;a&#34;:1.0},&#34;position&#34;:0.63999998569488525},{&#34;color&#34;:{&#34;r&#34;:0.95904946327209473,&#34;g&#34;:0.72734165191650391,&#34;b&#34;:0.91948962211608887,&#34;a&#34;:1.0},&#34;position&#34;:0.75999999046325684},{&#34;color&#34;:{&#34;r&#34;:0.73725491762161255,&#34;g&#34;:0.50980395078659058,&#34;b&#34;:0.95294117927551270,&#34;a&#34;:1.0},&#34;position&#34;:0.82999998331069946}],&#34;transform&#34;:{&#34;m00&#34;:1.0580947874599608e-13,&#34;m01&#34;:-2185.317871093750,&#34;m02&#34;:1976.6589355468750,&#34;m10&#34;:1117.0,&#34;m11&#34;:-3.7514120228201303e-14,&#34;m12&#34;:20.0},&#34;opacity&#34;:1.0,&#34;blendMode&#34;:&#34;NORMAL&#34;,&#34;visible&#34;:true}" mask="url(#path-7-inside-4_1_37)"/>
</g>
<defs>
<filter id="filter0_f_1_37" x="18" y="18" width="1732" height="1121" filterUnits="userSpaceOnUse" color-interpolation-filters="sRGB">
<feFlood flood-opacity="0" result="BackgroundImageFix"/>
<feBlend mode="normal" in="SourceGraphic" in2="BackgroundImageFix" result="shape"/>
<feGaussianBlur stdDeviation="1" result="effect1_foregroundBlur_1_37"/>
</filter>
<clipPath id="paint0_angular_1_37_clip_path"><path d="M20 20V16H16V20H20ZM1748 20H1752V16H1748V20ZM1748 1137V1141H1752V1137H1748ZM20 1137H16V1141H20V1137ZM20 24H1748V16H20V24ZM1744 20V1137H1752V20H1744ZM1748 1133H20V1141H1748V1133ZM24 1137V20H16V1137H24Z"/></clipPath><filter id="filter1_f_1_37" x="16" y="16" width="1736" height="1125" filterUnits="userSpaceOnUse" color-interpolation-filters="sRGB">
<feFlood flood-opacity="0" result="BackgroundImageFix"/>
<feBlend mode="normal" in="SourceGraphic" in2="BackgroundImageFix" result="shape"/>
<feGaussianBlur stdDeviation="2" result="effect1_foregroundBlur_1_37"/>
</filter>
<clipPath id="paint1_angular_1_37_clip_path"><path d="M20 20V12.5H12.5V20H20ZM1748 20H1755.5V12.5H1748V20ZM1748 1137V1144.5H1755.5V1137H1748ZM20 1137H12.5V1144.5H20V1137ZM20 27.5H1748V12.5H20V27.5ZM1740.5 20V1137H1755.5V20H1740.5ZM1748 1129.5H20V1144.5H1748V1129.5ZM27.5 1137V20H12.5V1137H27.5Z"/></clipPath><filter id="filter2_f_1_37" x="10" y="10" width="1748" height="1137" filterUnits="userSpaceOnUse" color-interpolation-filters="sRGB">
<feFlood flood-opacity="0" result="BackgroundImageFix"/>
<feBlend mode="normal" in="SourceGraphic" in2="BackgroundImageFix" result="shape"/>
<feGaussianBlur stdDeviation="5" result="effect1_foregroundBlur_1_37"/>
</filter>
<clipPath id="paint2_angular_1_37_clip_path"><path d="M20 20V9.5H9.5V20H20ZM1748 20H1758.5V9.5H1748V20ZM1748 1137V1147.5H1758.5V1137H1748ZM20 1137H9.5V1147.5H20V1137ZM20 30.5H1748V9.5H20V30.5ZM1737.5 20V1137H1758.5V20H1737.5ZM1748 1126.5H20V1147.5H1748V1126.5ZM30.5 1137V20H9.5V1137H30.5Z"/></clipPath><filter id="filter3_f_1_37" x="0" y="0" width="1768" height="1157" filterUnits="userSpaceOnUse" color-interpolation-filters="sRGB">
<feFlood flood-opacity="0" result="BackgroundImageFix"/>
<feBlend mode="normal" in="SourceGraphic" in2="BackgroundImageFix" result="shape"/>
<feGaussianBlur stdDeviation="10" result="effect1_foregroundBlur_1_37"/>
</filter>
<clipPath id="paint3_angular_1_37_clip_path"><path d="M20 20L20.4907 5.00803L3.40481 4.44875L5.07146 21.4624L20 20ZM1748 20L1762.99 20.5616L1763.57 4.9682L1747.97 5.00003L1748 20ZM1748 1137L1747.47 1151.99L1763.29 1152.55L1763 1136.73L1748 1137ZM20 1137L5.03378 1135.99L3.93704 1152.31L20.285 1152L20 1137ZM1741.5 193.5L1726.51 192.938L1726.5 193.219V193.5H1741.5ZM1741.5 780.5H1726.5V780.637L1726.5 780.773L1741.5 780.5ZM1431.5 1125.86L1432.03 1110.87L1431.76 1110.86H1431.5V1125.86ZM32 958.5L46.9662 959.506L47.0148 958.784L46.9936 958.061L32 958.5ZM32 142.5L46.9935 142.943L47.0216 141.988L46.9285 141.038L32 142.5ZM20 549.002L5.00653 548.559L4.99351 549L5.00644 549.441L20 549.002ZM606.5 1125.86V1110.86H606.357L606.215 1110.86L606.5 1125.86ZM20 20C19.5093 34.992 19.511 34.992 19.5145 34.9921C19.5179 34.9923 19.523 34.9924 19.5298 34.9926C19.5433 34.9931 19.5634 34.9937 19.5902 34.9946C19.6438 34.9964 19.7238 34.999 19.8298 35.0024C20.0418 35.0094 20.3579 35.0197 20.7748 35.0332C21.6084 35.0603 22.8451 35.1004 24.4581 35.1525C27.6842 35.2566 32.4156 35.4085 38.4391 35.5997C50.4862 35.9821 67.7024 36.5217 88.382 37.1508C129.739 38.409 184.958 40.0253 240.389 41.4574C295.806 42.889 351.494 44.138 393.767 44.6596C414.884 44.9202 432.765 45.0008 445.623 44.8272C452.022 44.7409 457.368 44.5895 461.312 44.349C463.245 44.231 465.133 44.0752 466.749 43.8455C467.529 43.7346 468.594 43.5592 469.715 43.2624C469.997 43.1879 473.449 42.4094 476.5 39.6799L456.5 17.3201C458.233 15.7699 459.888 15.0439 460.464 14.8024C461.208 14.4901 461.788 14.3275 462.038 14.2612C462.537 14.1292 462.774 14.109 462.528 14.1439C462.093 14.2057 461.137 14.3039 459.486 14.4046C456.261 14.6013 451.48 14.7455 445.218 14.83C432.757 14.9982 415.188 14.9217 394.137 14.6619C352.073 14.1429 296.548 12.8982 241.164 11.4674C185.795 10.0369 130.625 8.42209 89.2943 7.1647C68.6298 6.53604 51.4269 5.9968 39.3909 5.61476C33.373 5.42374 28.6469 5.27203 25.4257 5.16808C23.8152 5.11611 22.5809 5.07608 21.7495 5.04905C21.3338 5.03553 21.0189 5.02527 20.808 5.01839C20.7025 5.01495 20.6231 5.01235 20.5701 5.01062C20.5435 5.00976 20.5237 5.00911 20.5104 5.00867C20.5038 5.00846 20.4989 5.0083 20.4956 5.00819C20.4923 5.00808 20.4907 5.00803 20 20ZM476.5 39.6799C474.261 41.6831 471.998 42.4437 471.675 42.5589C470.935 42.8232 470.36 42.956 470.147 43.0036C469.69 43.1052 469.446 43.1282 469.62 43.1062C469.897 43.0709 470.567 43.0044 471.778 42.9217C474.133 42.7609 477.703 42.5929 482.509 42.4229C492.074 42.0846 506.002 41.756 523.727 41.4385C559.149 40.804 609.436 40.219 669.651 39.6824C790.065 38.6093 950.018 37.7312 1109.79 37.0375C1269.55 36.3438 1429.11 35.8344 1548.74 35.4984C1608.55 35.3305 1658.37 35.2058 1693.24 35.1232C1710.68 35.0819 1724.38 35.0511 1733.71 35.0306C1738.38 35.0204 1741.96 35.0127 1744.37 35.0076C1745.58 35.0051 1746.49 35.0031 1747.11 35.0019C1747.41 35.0012 1747.64 35.0008 1747.8 35.0004C1747.88 35.0003 1747.93 35.0002 1747.97 35.0001C1747.99 35 1748.01 35 1748.02 35C1748.03 35 1748.03 35 1748 20C1747.97 5.00003 1747.96 5.00004 1747.95 5.00006C1747.95 5.00008 1747.93 5.00011 1747.91 5.00015C1747.87 5.00023 1747.81 5.00035 1747.74 5.00051C1747.58 5.00083 1747.35 5.0013 1747.04 5.00194C1746.43 5.00321 1745.52 5.00512 1744.31 5.00767C1741.9 5.01277 1738.32 5.02044 1733.65 5.03068C1724.31 5.05117 1710.61 5.08198 1693.17 5.1233C1658.3 5.20593 1608.47 5.33056 1548.65 5.49855C1429.02 5.83452 1269.44 6.34396 1109.66 7.03777C949.878 7.73157 789.868 8.60982 669.383 9.68356C609.148 10.2204 558.751 10.8064 523.189 11.4433C505.422 11.7616 491.283 12.0938 481.448 12.4417C476.554 12.6148 472.591 12.7963 469.734 12.9914C468.34 13.0866 466.985 13.1997 465.837 13.3456C465.298 13.4141 464.491 13.5281 463.625 13.7211C463.206 13.8144 462.464 13.993 461.595 14.3031C461.143 14.4643 458.79 15.2708 456.5 17.3201L476.5 39.6799ZM1733.01 19.4384L1726.51 192.938L1756.49 194.062L1762.99 20.5616L1733.01 19.4384ZM1726.5 780.773L1733 1137.27L1763 1136.73L1756.5 780.227L1726.5 780.773ZM1748.53 1122.01L1432.03 1110.87L1430.97 1140.85L1747.47 1151.99L1748.53 1122.01ZM34.9662 1138.01L46.9662 959.506L17.0338 957.494L5.03378 1135.99L34.9662 1138.01ZM46.9285 141.038L34.9285 18.5376L5.07146 21.4624L17.0715 143.962L46.9285 141.038ZM46.9936 958.061L34.9936 548.562L5.00644 549.441L17.0064 958.939L46.9936 958.061ZM34.9935 549.444L46.9935 142.943L17.0065 142.057L5.00653 548.559L34.9935 549.444ZM1431.5 1110.86H606.5V1140.86H1431.5V1110.86ZM606.215 1110.86L19.715 1122L20.285 1152L606.785 1140.85L606.215 1110.86ZM1726.5 193.5V484.5H1756.5V193.5H1726.5ZM1726.5 484.5V780.5H1756.5V484.5H1726.5Z"/></clipPath></defs>
</svg>
