<svg width="1768" height="1157" viewBox="0 0 1768 1157" preserveAspectRatio="none" fill="none" xmlns="http://www.w3.org/2000/svg">
<g filter="url(#filter0_f_1_47)">
<mask id="path-1-inside-1_1_47" fill="white">
<path d="M20 20H1748V1137H20V20Z"/>
</mask>
<g clip-path="url(#paint0_angular_1_47_clip_path)" data-figma-skip-parse="true" mask="url(#path-1-inside-1_1_47)"><g transform="matrix(0 0.5585 -1.09266 0 884 578.5)"><foreignObject x="-1007.16" y="-1007.16" width="2014.32" height="2014.32"><div xmlns="http://www.w3.org/1999/xhtml" style="background:conic-gradient(from 90deg,rgba(184, 138, 255, 1) 0deg,rgba(198, 134, 255, 1) 28.8deg,rgba(244, 185, 234, 1) 57.6deg,rgba(255, 186, 113, 1) 104.4deg,rgba(170, 110, 238, 1) 115.2deg,rgba(255, 103, 119, 1) 149.4deg,rgba(188, 130, 243, 1) 205.2deg,rgba(141, 152, 255, 1) 271.8deg,rgba(184, 138, 255, 1) 360deg);height:100%;width:100%;opacity:1"></div></foreignObject></g></g><path d="M20 20V16H16V20H20ZM1748 20H1752V16H1748V20ZM1748 1137V1141H1752V1137H1748ZM20 1137H16V1141H20V1137ZM20 24H1748V16H20V24ZM1744 20V1137H1752V20H1744ZM1748 1133H20V1141H1748V1133ZM24 1137V20H16V1137H24Z" data-figma-gradient-fill="{&#34;type&#34;:&#34;GRADIENT_ANGULAR&#34;,&#34;stops&#34;:[{&#34;color&#34;:{&#34;r&#34;:0.77647060155868530,&#34;g&#34;:0.52549022436141968,&#34;b&#34;:1.0,&#34;a&#34;:1.0},&#34;position&#34;:0.079999998211860657},{&#34;color&#34;:{&#34;r&#34;:0.95904946327209473,&#34;g&#34;:0.72734165191650391,&#34;b&#34;:0.91948962211608887,&#34;a&#34;:1.0},&#34;position&#34;:0.15999999642372131},{&#34;color&#34;:{&#34;r&#34;:1.0,&#34;g&#34;:0.73015475273132324,&#34;b&#34;:0.44365233182907104,&#34;a&#34;:1.0},&#34;position&#34;:0.28999999165534973},{&#34;color&#34;:{&#34;r&#34;:0.66666668653488159,&#34;g&#34;:0.43137255311012268,&#34;b&#34;:0.93333333730697632,&#34;a&#34;:1.0},&#34;position&#34;:0.31999999284744263},{&#34;color&#34;:{&#34;r&#34;:1.0,&#34;g&#34;:0.40445962548255920,&#34;b&#34;:0.46972432732582092,&#34;a&#34;:1.0},&#34;position&#34;:0.41499999165534973},{&#34;color&#34;:{&#34;r&#34;:0.73725491762161255,&#34;g&#34;:0.50980395078659058,&#34;b&#34;:0.95294117927551270,&#34;a&#34;:1.0},&#34;position&#34;:0.56999999284744263},{&#34;color&#34;:{&#34;r&#34;:0.55441081523895264,&#34;g&#34;:0.59937852621078491,&#34;b&#34;:1.0,&#34;a&#34;:1.0},&#34;position&#34;:0.75499999523162842}],&#34;stopsVar&#34;:[{&#34;color&#34;:{&#34;r&#34;:0.77647060155868530,&#34;g&#34;:0.52549022436141968,&#34;b&#34;:1.0,&#34;a&#34;:1.0},&#34;position&#34;:0.079999998211860657},{&#34;color&#34;:{&#34;r&#34;:0.95904946327209473,&#34;g&#34;:0.72734165191650391,&#34;b&#34;:0.91948962211608887,&#34;a&#34;:1.0},&#34;position&#34;:0.15999999642372131},{&#34;color&#34;:{&#34;r&#34;:1.0,&#34;g&#34;:0.73015475273132324,&#34;b&#34;:0.44365233182907104,&#34;a&#34;:1.0},&#34;position&#34;:0.28999999165534973},{&#34;color&#34;:{&#34;r&#34;:0.66666668653488159,&#34;g&#34;:0.43137255311012268,&#34;b&#34;:0.93333333730697632,&#34;a&#34;:1.0},&#34;position&#34;:0.31999999284744263},{&#34;color&#34;:{&#34;r&#34;:1.0,&#34;g&#34;:0.40445962548255920,&#34;b&#34;:0.46972432732582092,&#34;a&#34;:1.0},&#34;position&#34;:0.41499999165534973},{&#34;color&#34;:{&#34;r&#34;:0.73725491762161255,&#34;g&#34;:0.50980395078659058,&#34;b&#34;:0.95294117927551270,&#34;a&#34;:1.0},&#34;position&#34;:0.56999999284744263},{&#34;color&#34;:{&#34;r&#34;:0.55441081523895264,&#34;g&#34;:0.59937852621078491,&#34;b&#34;:1.0,&#34;a&#34;:1.0},&#34;position&#34;:0.75499999523162842}],&#34;transform&#34;:{&#34;m00&#34;:1.0580948552225966e-13,&#34;m01&#34;:-2185.3181152343750,&#34;m02&#34;:1976.6590576171875,&#34;m10&#34;:1117.0,&#34;m11&#34;:-3.7514127004464881e-14,&#34;m12&#34;:20.0},&#34;opacity&#34;:1.0,&#34;blendMode&#34;:&#34;NORMAL&#34;,&#34;visible&#34;:true}" mask="url(#path-1-inside-1_1_47)"/>
</g>
<g filter="url(#filter1_f_1_47)">
<mask id="path-3-inside-2_1_47" fill="white">
<path d="M20 20H1748V1137H20V20Z"/>
</mask>
<g clip-path="url(#paint1_angular_1_47_clip_path)" data-figma-skip-parse="true" mask="url(#path-3-inside-2_1_47)"><g transform="matrix(0 0.5585 -1.09266 0 884 578.5)"><foreignObject x="-1013.43" y="-1013.43" width="2026.86" height="2026.86"><div xmlns="http://www.w3.org/1999/xhtml" style="background:conic-gradient(from 90deg,rgba(184, 138, 255, 1) 0deg,rgba(198, 134, 255, 1) 28.8deg,rgba(244, 185, 234, 1) 57.6deg,rgba(255, 186, 113, 1) 104.4deg,rgba(170, 110, 238, 1) 115.2deg,rgba(255, 103, 119, 1) 149.4deg,rgba(188, 130, 243, 1) 205.2deg,rgba(141, 152, 255, 1) 271.8deg,rgba(184, 138, 255, 1) 360deg);height:100%;width:100%;opacity:1"></div></foreignObject></g></g><path d="M20 20V12.5H12.5V20H20ZM1748 20H1755.5V12.5H1748V20ZM1748 1137V1144.5H1755.5V1137H1748ZM20 1137H12.5V1144.5H20V1137ZM20 27.5H1748V12.5H20V27.5ZM1740.5 20V1137H1755.5V20H1740.5ZM1748 1129.5H20V1144.5H1748V1129.5ZM27.5 1137V20H12.5V1137H27.5Z" data-figma-gradient-fill="{&#34;type&#34;:&#34;GRADIENT_ANGULAR&#34;,&#34;stops&#34;:[{&#34;color&#34;:{&#34;r&#34;:0.77647060155868530,&#34;g&#34;:0.52549022436141968,&#34;b&#34;:1.0,&#34;a&#34;:1.0},&#34;position&#34;:0.079999998211860657},{&#34;color&#34;:{&#34;r&#34;:0.95904946327209473,&#34;g&#34;:0.72734165191650391,&#34;b&#34;:0.91948962211608887,&#34;a&#34;:1.0},&#34;position&#34;:0.15999999642372131},{&#34;color&#34;:{&#34;r&#34;:1.0,&#34;g&#34;:0.73015475273132324,&#34;b&#34;:0.44365233182907104,&#34;a&#34;:1.0},&#34;position&#34;:0.28999999165534973},{&#34;color&#34;:{&#34;r&#34;:0.66666668653488159,&#34;g&#34;:0.43137255311012268,&#34;b&#34;:0.93333333730697632,&#34;a&#34;:1.0},&#34;position&#34;:0.31999999284744263},{&#34;color&#34;:{&#34;r&#34;:1.0,&#34;g&#34;:0.40445962548255920,&#34;b&#34;:0.46972432732582092,&#34;a&#34;:1.0},&#34;position&#34;:0.41499999165534973},{&#34;color&#34;:{&#34;r&#34;:0.73725491762161255,&#34;g&#34;:0.50980395078659058,&#34;b&#34;:0.95294117927551270,&#34;a&#34;:1.0},&#34;position&#34;:0.56999999284744263},{&#34;color&#34;:{&#34;r&#34;:0.55441081523895264,&#34;g&#34;:0.59937852621078491,&#34;b&#34;:1.0,&#34;a&#34;:1.0},&#34;position&#34;:0.75499999523162842}],&#34;stopsVar&#34;:[{&#34;color&#34;:{&#34;r&#34;:0.77647060155868530,&#34;g&#34;:0.52549022436141968,&#34;b&#34;:1.0,&#34;a&#34;:1.0},&#34;position&#34;:0.079999998211860657},{&#34;color&#34;:{&#34;r&#34;:0.95904946327209473,&#34;g&#34;:0.72734165191650391,&#34;b&#34;:0.91948962211608887,&#34;a&#34;:1.0},&#34;position&#34;:0.15999999642372131},{&#34;color&#34;:{&#34;r&#34;:1.0,&#34;g&#34;:0.73015475273132324,&#34;b&#34;:0.44365233182907104,&#34;a&#34;:1.0},&#34;position&#34;:0.28999999165534973},{&#34;color&#34;:{&#34;r&#34;:0.66666668653488159,&#34;g&#34;:0.43137255311012268,&#34;b&#34;:0.93333333730697632,&#34;a&#34;:1.0},&#34;position&#34;:0.31999999284744263},{&#34;color&#34;:{&#34;r&#34;:1.0,&#34;g&#34;:0.40445962548255920,&#34;b&#34;:0.46972432732582092,&#34;a&#34;:1.0},&#34;position&#34;:0.41499999165534973},{&#34;color&#34;:{&#34;r&#34;:0.73725491762161255,&#34;g&#34;:0.50980395078659058,&#34;b&#34;:0.95294117927551270,&#34;a&#34;:1.0},&#34;position&#34;:0.56999999284744263},{&#34;color&#34;:{&#34;r&#34;:0.55441081523895264,&#34;g&#34;:0.59937852621078491,&#34;b&#34;:1.0,&#34;a&#34;:1.0},&#34;position&#34;:0.75499999523162842}],&#34;transform&#34;:{&#34;m00&#34;:1.0580948552225966e-13,&#34;m01&#34;:-2185.3181152343750,&#34;m02&#34;:1976.6590576171875,&#34;m10&#34;:1117.0,&#34;m11&#34;:-3.7514127004464881e-14,&#34;m12&#34;:20.0},&#34;opacity&#34;:1.0,&#34;blendMode&#34;:&#34;NORMAL&#34;,&#34;visible&#34;:true}" mask="url(#path-3-inside-2_1_47)"/>
</g>
<g filter="url(#filter2_f_1_47)">
<mask id="path-5-inside-3_1_47" fill="white">
<path d="M20 20H1748V1137H20V20Z"/>
</mask>
<g clip-path="url(#paint2_angular_1_47_clip_path)" data-figma-skip-parse="true" mask="url(#path-5-inside-3_1_47)"><g transform="matrix(0 0.5585 -1.09266 0 884 578.5)"><foreignObject x="-1018.8" y="-1018.8" width="2037.6" height="2037.6"><div xmlns="http://www.w3.org/1999/xhtml" style="background:conic-gradient(from 90deg,rgba(184, 138, 255, 1) 0deg,rgba(198, 134, 255, 1) 28.8deg,rgba(244, 185, 234, 1) 57.6deg,rgba(255, 186, 113, 1) 104.4deg,rgba(170, 110, 238, 1) 115.2deg,rgba(255, 103, 119, 1) 149.4deg,rgba(188, 130, 243, 1) 205.2deg,rgba(141, 152, 255, 1) 271.8deg,rgba(184, 138, 255, 1) 360deg);height:100%;width:100%;opacity:1"></div></foreignObject></g></g><path d="M20 20V9.5H9.5V20H20ZM1748 20H1758.5V9.5H1748V20ZM1748 1137V1147.5H1758.5V1137H1748ZM20 1137H9.5V1147.5H20V1137ZM20 30.5H1748V9.5H20V30.5ZM1737.5 20V1137H1758.5V20H1737.5ZM1748 1126.5H20V1147.5H1748V1126.5ZM30.5 1137V20H9.5V1137H30.5Z" data-figma-gradient-fill="{&#34;type&#34;:&#34;GRADIENT_ANGULAR&#34;,&#34;stops&#34;:[{&#34;color&#34;:{&#34;r&#34;:0.77647060155868530,&#34;g&#34;:0.52549022436141968,&#34;b&#34;:1.0,&#34;a&#34;:1.0},&#34;position&#34;:0.079999998211860657},{&#34;color&#34;:{&#34;r&#34;:0.95904946327209473,&#34;g&#34;:0.72734165191650391,&#34;b&#34;:0.91948962211608887,&#34;a&#34;:1.0},&#34;position&#34;:0.15999999642372131},{&#34;color&#34;:{&#34;r&#34;:1.0,&#34;g&#34;:0.73015475273132324,&#34;b&#34;:0.44365233182907104,&#34;a&#34;:1.0},&#34;position&#34;:0.28999999165534973},{&#34;color&#34;:{&#34;r&#34;:0.66666668653488159,&#34;g&#34;:0.43137255311012268,&#34;b&#34;:0.93333333730697632,&#34;a&#34;:1.0},&#34;position&#34;:0.31999999284744263},{&#34;color&#34;:{&#34;r&#34;:1.0,&#34;g&#34;:0.40445962548255920,&#34;b&#34;:0.46972432732582092,&#34;a&#34;:1.0},&#34;position&#34;:0.41499999165534973},{&#34;color&#34;:{&#34;r&#34;:0.73725491762161255,&#34;g&#34;:0.50980395078659058,&#34;b&#34;:0.95294117927551270,&#34;a&#34;:1.0},&#34;position&#34;:0.56999999284744263},{&#34;color&#34;:{&#34;r&#34;:0.55441081523895264,&#34;g&#34;:0.59937852621078491,&#34;b&#34;:1.0,&#34;a&#34;:1.0},&#34;position&#34;:0.75499999523162842}],&#34;stopsVar&#34;:[{&#34;color&#34;:{&#34;r&#34;:0.77647060155868530,&#34;g&#34;:0.52549022436141968,&#34;b&#34;:1.0,&#34;a&#34;:1.0},&#34;position&#34;:0.079999998211860657},{&#34;color&#34;:{&#34;r&#34;:0.95904946327209473,&#34;g&#34;:0.72734165191650391,&#34;b&#34;:0.91948962211608887,&#34;a&#34;:1.0},&#34;position&#34;:0.15999999642372131},{&#34;color&#34;:{&#34;r&#34;:1.0,&#34;g&#34;:0.73015475273132324,&#34;b&#34;:0.44365233182907104,&#34;a&#34;:1.0},&#34;position&#34;:0.28999999165534973},{&#34;color&#34;:{&#34;r&#34;:0.66666668653488159,&#34;g&#34;:0.43137255311012268,&#34;b&#34;:0.93333333730697632,&#34;a&#34;:1.0},&#34;position&#34;:0.31999999284744263},{&#34;color&#34;:{&#34;r&#34;:1.0,&#34;g&#34;:0.40445962548255920,&#34;b&#34;:0.46972432732582092,&#34;a&#34;:1.0},&#34;position&#34;:0.41499999165534973},{&#34;color&#34;:{&#34;r&#34;:0.73725491762161255,&#34;g&#34;:0.50980395078659058,&#34;b&#34;:0.95294117927551270,&#34;a&#34;:1.0},&#34;position&#34;:0.56999999284744263},{&#34;color&#34;:{&#34;r&#34;:0.55441081523895264,&#34;g&#34;:0.59937852621078491,&#34;b&#34;:1.0,&#34;a&#34;:1.0},&#34;position&#34;:0.75499999523162842}],&#34;transform&#34;:{&#34;m00&#34;:1.0580948552225966e-13,&#34;m01&#34;:-2185.3181152343750,&#34;m02&#34;:1976.6590576171875,&#34;m10&#34;:1117.0,&#34;m11&#34;:-3.7514127004464881e-14,&#34;m12&#34;:20.0},&#34;opacity&#34;:1.0,&#34;blendMode&#34;:&#34;NORMAL&#34;,&#34;visible&#34;:true}" mask="url(#path-5-inside-3_1_47)"/>
</g>
<g filter="url(#filter3_f_1_47)" style="mix-blend-mode:hard-light">
<mask id="path-7-inside-4_1_47" fill="white">
<path d="M20 20L1251.15 31.1438L1748 20L1739 161.5V572L1748 1137L1057.68 1126.51L20 1137L30 880V550.5V209L20 20Z"/>
</mask>
<g clip-path="url(#paint3_angular_1_47_clip_path)" data-figma-skip-parse="true" mask="url(#path-7-inside-4_1_47)"><g transform="matrix(0 0.5585 -1.09266 0 884 578.5)"><foreignObject x="-1026.86" y="-1026.86" width="2053.72" height="2053.72"><div xmlns="http://www.w3.org/1999/xhtml" style="background:conic-gradient(from 90deg,rgba(184, 138, 255, 1) 0deg,rgba(198, 134, 255, 1) 28.8deg,rgba(244, 185, 234, 1) 57.6deg,rgba(255, 186, 113, 1) 104.4deg,rgba(170, 110, 238, 1) 115.2deg,rgba(255, 103, 119, 1) 149.4deg,rgba(188, 130, 243, 1) 205.2deg,rgba(141, 152, 255, 1) 271.8deg,rgba(184, 138, 255, 1) 360deg);height:100%;width:100%;opacity:1"></div></foreignObject></g></g><path d="M20 20L20.1358 5.00061L4.17776 4.85617L5.02095 20.7925L20 20ZM1748 20L1762.97 20.9521L1764.01 4.6372L1747.66 5.00377L1748 20ZM1748 1137L1747.77 1152L1763.24 1152.23L1763 1136.76L1748 1137ZM20 1137L5.01134 1136.42L4.39883 1152.16L20.1516 1152L20 1137ZM1251.15 31.1438L1251.01 46.1432L1251.25 46.1453L1251.48 46.14L1251.15 31.1438ZM30 880L44.9887 880.583L45 880.292V880H30ZM30 209H45V208.603L44.979 208.207L30 209ZM1739 572H1724V572.119L1724 572.239L1739 572ZM1739 161.5L1724.03 160.548L1724 161.023V161.5H1739ZM1057.68 1126.51L1057.91 1111.51L1057.72 1111.51L1057.53 1111.51L1057.68 1126.51ZM19.8642 34.9994L1251.01 46.1432L1251.28 16.1444L20.1358 5.00061L19.8642 34.9994ZM1251.48 46.14L1748.34 34.9962L1747.66 5.00377L1250.81 16.1476L1251.48 46.14ZM34.9887 1137.58L44.9887 880.583L15.0113 879.417L5.01134 1136.42L34.9887 1137.58ZM44.979 208.207L34.979 19.2075L5.02095 20.7925L15.021 209.793L44.979 208.207ZM45 880V550.5H15V880H45ZM45 550.5V209H15V550.5H45ZM1724 572.239L1733 1137.24L1763 1136.76L1754 571.761L1724 572.239ZM1733.03 19.0479L1724.03 160.548L1753.97 162.452L1762.97 20.9521L1733.03 19.0479ZM1724 161.5V572H1754V161.5H1724ZM1748.23 1122L1057.91 1111.51L1057.45 1141.51L1747.77 1152L1748.23 1122ZM1057.53 1111.51L19.8484 1122L20.1516 1152L1057.83 1141.51L1057.53 1111.51Z" data-figma-gradient-fill="{&#34;type&#34;:&#34;GRADIENT_ANGULAR&#34;,&#34;stops&#34;:[{&#34;color&#34;:{&#34;r&#34;:0.77647060155868530,&#34;g&#34;:0.52549022436141968,&#34;b&#34;:1.0,&#34;a&#34;:1.0},&#34;position&#34;:0.079999998211860657},{&#34;color&#34;:{&#34;r&#34;:0.95904946327209473,&#34;g&#34;:0.72734165191650391,&#34;b&#34;:0.91948962211608887,&#34;a&#34;:1.0},&#34;position&#34;:0.15999999642372131},{&#34;color&#34;:{&#34;r&#34;:1.0,&#34;g&#34;:0.73015475273132324,&#34;b&#34;:0.44365233182907104,&#34;a&#34;:1.0},&#34;position&#34;:0.28999999165534973},{&#34;color&#34;:{&#34;r&#34;:0.66666668653488159,&#34;g&#34;:0.43137255311012268,&#34;b&#34;:0.93333333730697632,&#34;a&#34;:1.0},&#34;position&#34;:0.31999999284744263},{&#34;color&#34;:{&#34;r&#34;:1.0,&#34;g&#34;:0.40445962548255920,&#34;b&#34;:0.46972432732582092,&#34;a&#34;:1.0},&#34;position&#34;:0.41499999165534973},{&#34;color&#34;:{&#34;r&#34;:0.73725491762161255,&#34;g&#34;:0.50980395078659058,&#34;b&#34;:0.95294117927551270,&#34;a&#34;:1.0},&#34;position&#34;:0.56999999284744263},{&#34;color&#34;:{&#34;r&#34;:0.55441081523895264,&#34;g&#34;:0.59937852621078491,&#34;b&#34;:1.0,&#34;a&#34;:1.0},&#34;position&#34;:0.75499999523162842}],&#34;stopsVar&#34;:[{&#34;color&#34;:{&#34;r&#34;:0.77647060155868530,&#34;g&#34;:0.52549022436141968,&#34;b&#34;:1.0,&#34;a&#34;:1.0},&#34;position&#34;:0.079999998211860657},{&#34;color&#34;:{&#34;r&#34;:0.95904946327209473,&#34;g&#34;:0.72734165191650391,&#34;b&#34;:0.91948962211608887,&#34;a&#34;:1.0},&#34;position&#34;:0.15999999642372131},{&#34;color&#34;:{&#34;r&#34;:1.0,&#34;g&#34;:0.73015475273132324,&#34;b&#34;:0.44365233182907104,&#34;a&#34;:1.0},&#34;position&#34;:0.28999999165534973},{&#34;color&#34;:{&#34;r&#34;:0.66666668653488159,&#34;g&#34;:0.43137255311012268,&#34;b&#34;:0.93333333730697632,&#34;a&#34;:1.0},&#34;position&#34;:0.31999999284744263},{&#34;color&#34;:{&#34;r&#34;:1.0,&#34;g&#34;:0.40445962548255920,&#34;b&#34;:0.46972432732582092,&#34;a&#34;:1.0},&#34;position&#34;:0.41499999165534973},{&#34;color&#34;:{&#34;r&#34;:0.73725491762161255,&#34;g&#34;:0.50980395078659058,&#34;b&#34;:0.95294117927551270,&#34;a&#34;:1.0},&#34;position&#34;:0.56999999284744263},{&#34;color&#34;:{&#34;r&#34;:0.55441081523895264,&#34;g&#34;:0.59937852621078491,&#34;b&#34;:1.0,&#34;a&#34;:1.0},&#34;position&#34;:0.75499999523162842}],&#34;transform&#34;:{&#34;m00&#34;:1.0580948552225966e-13,&#34;m01&#34;:-2185.3181152343750,&#34;m02&#34;:1976.6590576171875,&#34;m10&#34;:1117.0,&#34;m11&#34;:-3.7514127004464881e-14,&#34;m12&#34;:20.0},&#34;opacity&#34;:1.0,&#34;blendMode&#34;:&#34;NORMAL&#34;,&#34;visible&#34;:true}" mask="url(#path-7-inside-4_1_47)"/>
</g>
<defs>
<filter id="filter0_f_1_47" x="18" y="18" width="1732" height="1121" filterUnits="userSpaceOnUse" color-interpolation-filters="sRGB">
<feFlood flood-opacity="0" result="BackgroundImageFix"/>
<feBlend mode="normal" in="SourceGraphic" in2="BackgroundImageFix" result="shape"/>
<feGaussianBlur stdDeviation="1" result="effect1_foregroundBlur_1_47"/>
</filter>
<clipPath id="paint0_angular_1_47_clip_path"><path d="M20 20V16H16V20H20ZM1748 20H1752V16H1748V20ZM1748 1137V1141H1752V1137H1748ZM20 1137H16V1141H20V1137ZM20 24H1748V16H20V24ZM1744 20V1137H1752V20H1744ZM1748 1133H20V1141H1748V1133ZM24 1137V20H16V1137H24Z"/></clipPath><filter id="filter1_f_1_47" x="16" y="16" width="1736" height="1125" filterUnits="userSpaceOnUse" color-interpolation-filters="sRGB">
<feFlood flood-opacity="0" result="BackgroundImageFix"/>
<feBlend mode="normal" in="SourceGraphic" in2="BackgroundImageFix" result="shape"/>
<feGaussianBlur stdDeviation="2" result="effect1_foregroundBlur_1_47"/>
</filter>
<clipPath id="paint1_angular_1_47_clip_path"><path d="M20 20V12.5H12.5V20H20ZM1748 20H1755.5V12.5H1748V20ZM1748 1137V1144.5H1755.5V1137H1748ZM20 1137H12.5V1144.5H20V1137ZM20 27.5H1748V12.5H20V27.5ZM1740.5 20V1137H1755.5V20H1740.5ZM1748 1129.5H20V1144.5H1748V1129.5ZM27.5 1137V20H12.5V1137H27.5Z"/></clipPath><filter id="filter2_f_1_47" x="10" y="10" width="1748" height="1137" filterUnits="userSpaceOnUse" color-interpolation-filters="sRGB">
<feFlood flood-opacity="0" result="BackgroundImageFix"/>
<feBlend mode="normal" in="SourceGraphic" in2="BackgroundImageFix" result="shape"/>
<feGaussianBlur stdDeviation="5" result="effect1_foregroundBlur_1_47"/>
</filter>
<clipPath id="paint2_angular_1_47_clip_path"><path d="M20 20V9.5H9.5V20H20ZM1748 20H1758.5V9.5H1748V20ZM1748 1137V1147.5H1758.5V1137H1748ZM20 1137H9.5V1147.5H20V1137ZM20 30.5H1748V9.5H20V30.5ZM1737.5 20V1137H1758.5V20H1737.5ZM1748 1126.5H20V1147.5H1748V1126.5ZM30.5 1137V20H9.5V1137H30.5Z"/></clipPath><filter id="filter3_f_1_47" x="0" y="0" width="1768" height="1157" filterUnits="userSpaceOnUse" color-interpolation-filters="sRGB">
<feFlood flood-opacity="0" result="BackgroundImageFix"/>
<feBlend mode="normal" in="SourceGraphic" in2="BackgroundImageFix" result="shape"/>
<feGaussianBlur stdDeviation="10" result="effect1_foregroundBlur_1_47"/>
</filter>
<clipPath id="paint3_angular_1_47_clip_path"><path d="M20 20L20.1358 5.00061L4.17776 4.85617L5.02095 20.7925L20 20ZM1748 20L1762.97 20.9521L1764.01 4.6372L1747.66 5.00377L1748 20ZM1748 1137L1747.77 1152L1763.24 1152.23L1763 1136.76L1748 1137ZM20 1137L5.01134 1136.42L4.39883 1152.16L20.1516 1152L20 1137ZM1251.15 31.1438L1251.01 46.1432L1251.25 46.1453L1251.48 46.14L1251.15 31.1438ZM30 880L44.9887 880.583L45 880.292V880H30ZM30 209H45V208.603L44.979 208.207L30 209ZM1739 572H1724V572.119L1724 572.239L1739 572ZM1739 161.5L1724.03 160.548L1724 161.023V161.5H1739ZM1057.68 1126.51L1057.91 1111.51L1057.72 1111.51L1057.53 1111.51L1057.68 1126.51ZM19.8642 34.9994L1251.01 46.1432L1251.28 16.1444L20.1358 5.00061L19.8642 34.9994ZM1251.48 46.14L1748.34 34.9962L1747.66 5.00377L1250.81 16.1476L1251.48 46.14ZM34.9887 1137.58L44.9887 880.583L15.0113 879.417L5.01134 1136.42L34.9887 1137.58ZM44.979 208.207L34.979 19.2075L5.02095 20.7925L15.021 209.793L44.979 208.207ZM45 880V550.5H15V880H45ZM45 550.5V209H15V550.5H45ZM1724 572.239L1733 1137.24L1763 1136.76L1754 571.761L1724 572.239ZM1733.03 19.0479L1724.03 160.548L1753.97 162.452L1762.97 20.9521L1733.03 19.0479ZM1724 161.5V572H1754V161.5H1724ZM1748.23 1122L1057.91 1111.51L1057.45 1141.51L1747.77 1152L1748.23 1122ZM1057.53 1111.51L19.8484 1122L20.1516 1152L1057.83 1141.51L1057.53 1111.51Z"/></clipPath></defs>
</svg>
