<svg width="1768" height="1157" viewBox="0 0 1768 1157" preserveAspectRatio="none" fill="none" xmlns="http://www.w3.org/2000/svg">
<g filter="url(#filter0_f_1_42)">
<mask id="path-1-inside-1_1_42" fill="white">
<path d="M20 20H1748V1137H20V20Z"/>
</mask>
<g clip-path="url(#paint0_angular_1_42_clip_path)" data-figma-skip-parse="true" mask="url(#path-1-inside-1_1_42)"><g transform="matrix(0 0.5585 -1.09266 0 884 578.5)"><foreignObject x="-1007.16" y="-1007.16" width="2014.32" height="2014.32"><div xmlns="http://www.w3.org/1999/xhtml" style="background:conic-gradient(from 90deg,rgba(187, 108, 213, 1) 0deg,rgba(170, 110, 238, 1) 28.8deg,rgba(141, 152, 255, 1) 50.4deg,rgba(244, 185, 234, 1) 93.6deg,rgba(255, 186, 113, 1) 111.6deg,rgba(188, 130, 243, 1) 118.8deg,rgba(198, 134, 255, 1) 151.2deg,rgba(255, 103, 119, 1) 252deg,rgba(187, 108, 213, 1) 360deg);height:100%;width:100%;opacity:1"></div></foreignObject></g></g><path d="M20 20V16H16V20H20ZM1748 20H1752V16H1748V20ZM1748 1137V1141H1752V1137H1748ZM20 1137H16V1141H20V1137ZM20 24H1748V16H20V24ZM1744 20V1137H1752V20H1744ZM1748 1133H20V1141H1748V1133ZM24 1137V20H16V1137H24Z" data-figma-gradient-fill="{&#34;type&#34;:&#34;GRADIENT_ANGULAR&#34;,&#34;stops&#34;:[{&#34;color&#34;:{&#34;r&#34;:0.66666668653488159,&#34;g&#34;:0.43137255311012268,&#34;b&#34;:0.93333333730697632,&#34;a&#34;:1.0},&#34;position&#34;:0.079999998211860657},{&#34;color&#34;:{&#34;r&#34;:0.55441081523895264,&#34;g&#34;:0.59937852621078491,&#34;b&#34;:1.0,&#34;a&#34;:1.0},&#34;position&#34;:0.14000000059604645},{&#34;color&#34;:{&#34;r&#34;:0.95904946327209473,&#34;g&#34;:0.72734165191650391,&#34;b&#34;:0.91948962211608887,&#34;a&#34;:1.0},&#34;position&#34;:0.25999999046325684},{&#34;color&#34;:{&#34;r&#34;:1.0,&#34;g&#34;:0.73015475273132324,&#34;b&#34;:0.44365233182907104,&#34;a&#34;:1.0},&#34;position&#34;:0.31000000238418579},{&#34;color&#34;:{&#34;r&#34;:0.73725491762161255,&#34;g&#34;:0.50980395078659058,&#34;b&#34;:0.95294117927551270,&#34;a&#34;:1.0},&#34;position&#34;:0.33000001311302185},{&#34;color&#34;:{&#34;r&#34;:0.77719807624816895,&#34;g&#34;:0.52703452110290527,&#34;b&#34;:1.0,&#34;a&#34;:1.0},&#34;position&#34;:0.41999998688697815},{&#34;color&#34;:{&#34;r&#34;:1.0,&#34;g&#34;:0.40445962548255920,&#34;b&#34;:0.46972432732582092,&#34;a&#34;:1.0},&#34;position&#34;:0.69999998807907104}],&#34;stopsVar&#34;:[{&#34;color&#34;:{&#34;r&#34;:0.66666668653488159,&#34;g&#34;:0.43137255311012268,&#34;b&#34;:0.93333333730697632,&#34;a&#34;:1.0},&#34;position&#34;:0.079999998211860657},{&#34;color&#34;:{&#34;r&#34;:0.55441081523895264,&#34;g&#34;:0.59937852621078491,&#34;b&#34;:1.0,&#34;a&#34;:1.0},&#34;position&#34;:0.14000000059604645},{&#34;color&#34;:{&#34;r&#34;:0.95904946327209473,&#34;g&#34;:0.72734165191650391,&#34;b&#34;:0.91948962211608887,&#34;a&#34;:1.0},&#34;position&#34;:0.25999999046325684},{&#34;color&#34;:{&#34;r&#34;:1.0,&#34;g&#34;:0.73015475273132324,&#34;b&#34;:0.44365233182907104,&#34;a&#34;:1.0},&#34;position&#34;:0.31000000238418579},{&#34;color&#34;:{&#34;r&#34;:0.73725491762161255,&#34;g&#34;:0.50980395078659058,&#34;b&#34;:0.95294117927551270,&#34;a&#34;:1.0},&#34;position&#34;:0.33000001311302185},{&#34;color&#34;:{&#34;r&#34;:0.77719807624816895,&#34;g&#34;:0.52703452110290527,&#34;b&#34;:1.0,&#34;a&#34;:1.0},&#34;position&#34;:0.41999998688697815},{&#34;color&#34;:{&#34;r&#34;:1.0,&#34;g&#34;:0.40445962548255920,&#34;b&#34;:0.46972432732582092,&#34;a&#34;:1.0},&#34;position&#34;:0.69999998807907104}],&#34;transform&#34;:{&#34;m00&#34;:1.0580948552225966e-13,&#34;m01&#34;:-2185.3181152343750,&#34;m02&#34;:1976.6590576171875,&#34;m10&#34;:1117.0,&#34;m11&#34;:-3.7514127004464881e-14,&#34;m12&#34;:20.0},&#34;opacity&#34;:1.0,&#34;blendMode&#34;:&#34;NORMAL&#34;,&#34;visible&#34;:true}" mask="url(#path-1-inside-1_1_42)"/>
</g>
<g filter="url(#filter1_f_1_42)">
<mask id="path-3-inside-2_1_42" fill="white">
<path d="M20 20H1748V1137H20V20Z"/>
</mask>
<g clip-path="url(#paint1_angular_1_42_clip_path)" data-figma-skip-parse="true" mask="url(#path-3-inside-2_1_42)"><g transform="matrix(0 0.5585 -1.09266 0 884 578.5)"><foreignObject x="-1013.43" y="-1013.43" width="2026.86" height="2026.86"><div xmlns="http://www.w3.org/1999/xhtml" style="background:conic-gradient(from 90deg,rgba(187, 108, 213, 1) 0deg,rgba(170, 110, 238, 1) 28.8deg,rgba(141, 152, 255, 1) 50.4deg,rgba(244, 185, 234, 1) 93.6deg,rgba(255, 186, 113, 1) 111.6deg,rgba(188, 130, 243, 1) 118.8deg,rgba(198, 134, 255, 1) 151.2deg,rgba(255, 103, 119, 1) 252deg,rgba(187, 108, 213, 1) 360deg);height:100%;width:100%;opacity:1"></div></foreignObject></g></g><path d="M20 20V12.5H12.5V20H20ZM1748 20H1755.5V12.5H1748V20ZM1748 1137V1144.5H1755.5V1137H1748ZM20 1137H12.5V1144.5H20V1137ZM20 27.5H1748V12.5H20V27.5ZM1740.5 20V1137H1755.5V20H1740.5ZM1748 1129.5H20V1144.5H1748V1129.5ZM27.5 1137V20H12.5V1137H27.5Z" data-figma-gradient-fill="{&#34;type&#34;:&#34;GRADIENT_ANGULAR&#34;,&#34;stops&#34;:[{&#34;color&#34;:{&#34;r&#34;:0.66666668653488159,&#34;g&#34;:0.43137255311012268,&#34;b&#34;:0.93333333730697632,&#34;a&#34;:1.0},&#34;position&#34;:0.079999998211860657},{&#34;color&#34;:{&#34;r&#34;:0.55441081523895264,&#34;g&#34;:0.59937852621078491,&#34;b&#34;:1.0,&#34;a&#34;:1.0},&#34;position&#34;:0.14000000059604645},{&#34;color&#34;:{&#34;r&#34;:0.95904946327209473,&#34;g&#34;:0.72734165191650391,&#34;b&#34;:0.91948962211608887,&#34;a&#34;:1.0},&#34;position&#34;:0.25999999046325684},{&#34;color&#34;:{&#34;r&#34;:1.0,&#34;g&#34;:0.73015475273132324,&#34;b&#34;:0.44365233182907104,&#34;a&#34;:1.0},&#34;position&#34;:0.31000000238418579},{&#34;color&#34;:{&#34;r&#34;:0.73725491762161255,&#34;g&#34;:0.50980395078659058,&#34;b&#34;:0.95294117927551270,&#34;a&#34;:1.0},&#34;position&#34;:0.33000001311302185},{&#34;color&#34;:{&#34;r&#34;:0.77719807624816895,&#34;g&#34;:0.52703452110290527,&#34;b&#34;:1.0,&#34;a&#34;:1.0},&#34;position&#34;:0.41999998688697815},{&#34;color&#34;:{&#34;r&#34;:1.0,&#34;g&#34;:0.40445962548255920,&#34;b&#34;:0.46972432732582092,&#34;a&#34;:1.0},&#34;position&#34;:0.69999998807907104}],&#34;stopsVar&#34;:[{&#34;color&#34;:{&#34;r&#34;:0.66666668653488159,&#34;g&#34;:0.43137255311012268,&#34;b&#34;:0.93333333730697632,&#34;a&#34;:1.0},&#34;position&#34;:0.079999998211860657},{&#34;color&#34;:{&#34;r&#34;:0.55441081523895264,&#34;g&#34;:0.59937852621078491,&#34;b&#34;:1.0,&#34;a&#34;:1.0},&#34;position&#34;:0.14000000059604645},{&#34;color&#34;:{&#34;r&#34;:0.95904946327209473,&#34;g&#34;:0.72734165191650391,&#34;b&#34;:0.91948962211608887,&#34;a&#34;:1.0},&#34;position&#34;:0.25999999046325684},{&#34;color&#34;:{&#34;r&#34;:1.0,&#34;g&#34;:0.73015475273132324,&#34;b&#34;:0.44365233182907104,&#34;a&#34;:1.0},&#34;position&#34;:0.31000000238418579},{&#34;color&#34;:{&#34;r&#34;:0.73725491762161255,&#34;g&#34;:0.50980395078659058,&#34;b&#34;:0.95294117927551270,&#34;a&#34;:1.0},&#34;position&#34;:0.33000001311302185},{&#34;color&#34;:{&#34;r&#34;:0.77719807624816895,&#34;g&#34;:0.52703452110290527,&#34;b&#34;:1.0,&#34;a&#34;:1.0},&#34;position&#34;:0.41999998688697815},{&#34;color&#34;:{&#34;r&#34;:1.0,&#34;g&#34;:0.40445962548255920,&#34;b&#34;:0.46972432732582092,&#34;a&#34;:1.0},&#34;position&#34;:0.69999998807907104}],&#34;transform&#34;:{&#34;m00&#34;:1.0580948552225966e-13,&#34;m01&#34;:-2185.3181152343750,&#34;m02&#34;:1976.6590576171875,&#34;m10&#34;:1117.0,&#34;m11&#34;:-3.7514127004464881e-14,&#34;m12&#34;:20.0},&#34;opacity&#34;:1.0,&#34;blendMode&#34;:&#34;NORMAL&#34;,&#34;visible&#34;:true}" mask="url(#path-3-inside-2_1_42)"/>
</g>
<g filter="url(#filter2_f_1_42)">
<mask id="path-5-inside-3_1_42" fill="white">
<path d="M20 20H1748V1137H20V20Z"/>
</mask>
<g clip-path="url(#paint2_angular_1_42_clip_path)" data-figma-skip-parse="true" mask="url(#path-5-inside-3_1_42)"><g transform="matrix(0 0.5585 -1.09266 0 884 578.5)"><foreignObject x="-1018.8" y="-1018.8" width="2037.6" height="2037.6"><div xmlns="http://www.w3.org/1999/xhtml" style="background:conic-gradient(from 90deg,rgba(187, 108, 213, 1) 0deg,rgba(170, 110, 238, 1) 28.8deg,rgba(141, 152, 255, 1) 50.4deg,rgba(244, 185, 234, 1) 93.6deg,rgba(255, 186, 113, 1) 111.6deg,rgba(188, 130, 243, 1) 118.8deg,rgba(198, 134, 255, 1) 151.2deg,rgba(255, 103, 119, 1) 252deg,rgba(187, 108, 213, 1) 360deg);height:100%;width:100%;opacity:1"></div></foreignObject></g></g><path d="M20 20V9.5H9.5V20H20ZM1748 20H1758.5V9.5H1748V20ZM1748 1137V1147.5H1758.5V1137H1748ZM20 1137H9.5V1147.5H20V1137ZM20 30.5H1748V9.5H20V30.5ZM1737.5 20V1137H1758.5V20H1737.5ZM1748 1126.5H20V1147.5H1748V1126.5ZM30.5 1137V20H9.5V1137H30.5Z" data-figma-gradient-fill="{&#34;type&#34;:&#34;GRADIENT_ANGULAR&#34;,&#34;stops&#34;:[{&#34;color&#34;:{&#34;r&#34;:0.66666668653488159,&#34;g&#34;:0.43137255311012268,&#34;b&#34;:0.93333333730697632,&#34;a&#34;:1.0},&#34;position&#34;:0.079999998211860657},{&#34;color&#34;:{&#34;r&#34;:0.55441081523895264,&#34;g&#34;:0.59937852621078491,&#34;b&#34;:1.0,&#34;a&#34;:1.0},&#34;position&#34;:0.14000000059604645},{&#34;color&#34;:{&#34;r&#34;:0.95904946327209473,&#34;g&#34;:0.72734165191650391,&#34;b&#34;:0.91948962211608887,&#34;a&#34;:1.0},&#34;position&#34;:0.25999999046325684},{&#34;color&#34;:{&#34;r&#34;:1.0,&#34;g&#34;:0.73015475273132324,&#34;b&#34;:0.44365233182907104,&#34;a&#34;:1.0},&#34;position&#34;:0.31000000238418579},{&#34;color&#34;:{&#34;r&#34;:0.73725491762161255,&#34;g&#34;:0.50980395078659058,&#34;b&#34;:0.95294117927551270,&#34;a&#34;:1.0},&#34;position&#34;:0.33000001311302185},{&#34;color&#34;:{&#34;r&#34;:0.77719807624816895,&#34;g&#34;:0.52703452110290527,&#34;b&#34;:1.0,&#34;a&#34;:1.0},&#34;position&#34;:0.41999998688697815},{&#34;color&#34;:{&#34;r&#34;:1.0,&#34;g&#34;:0.40445962548255920,&#34;b&#34;:0.46972432732582092,&#34;a&#34;:1.0},&#34;position&#34;:0.69999998807907104}],&#34;stopsVar&#34;:[{&#34;color&#34;:{&#34;r&#34;:0.66666668653488159,&#34;g&#34;:0.43137255311012268,&#34;b&#34;:0.93333333730697632,&#34;a&#34;:1.0},&#34;position&#34;:0.079999998211860657},{&#34;color&#34;:{&#34;r&#34;:0.55441081523895264,&#34;g&#34;:0.59937852621078491,&#34;b&#34;:1.0,&#34;a&#34;:1.0},&#34;position&#34;:0.14000000059604645},{&#34;color&#34;:{&#34;r&#34;:0.95904946327209473,&#34;g&#34;:0.72734165191650391,&#34;b&#34;:0.91948962211608887,&#34;a&#34;:1.0},&#34;position&#34;:0.25999999046325684},{&#34;color&#34;:{&#34;r&#34;:1.0,&#34;g&#34;:0.73015475273132324,&#34;b&#34;:0.44365233182907104,&#34;a&#34;:1.0},&#34;position&#34;:0.31000000238418579},{&#34;color&#34;:{&#34;r&#34;:0.73725491762161255,&#34;g&#34;:0.50980395078659058,&#34;b&#34;:0.95294117927551270,&#34;a&#34;:1.0},&#34;position&#34;:0.33000001311302185},{&#34;color&#34;:{&#34;r&#34;:0.77719807624816895,&#34;g&#34;:0.52703452110290527,&#34;b&#34;:1.0,&#34;a&#34;:1.0},&#34;position&#34;:0.41999998688697815},{&#34;color&#34;:{&#34;r&#34;:1.0,&#34;g&#34;:0.40445962548255920,&#34;b&#34;:0.46972432732582092,&#34;a&#34;:1.0},&#34;position&#34;:0.69999998807907104}],&#34;transform&#34;:{&#34;m00&#34;:1.0580948552225966e-13,&#34;m01&#34;:-2185.3181152343750,&#34;m02&#34;:1976.6590576171875,&#34;m10&#34;:1117.0,&#34;m11&#34;:-3.7514127004464881e-14,&#34;m12&#34;:20.0},&#34;opacity&#34;:1.0,&#34;blendMode&#34;:&#34;NORMAL&#34;,&#34;visible&#34;:true}" mask="url(#path-5-inside-3_1_42)"/>
</g>
<g filter="url(#filter3_f_1_42)" style="mix-blend-mode:hard-light">
<mask id="path-7-inside-4_1_42" fill="white">
<path d="M20 20L374.5 29.5L1748 20L1744 302L1748 1137L1338.5 1125.5L20 1137L33.5 565.5L20 20Z"/>
</mask>
<g clip-path="url(#paint3_angular_1_42_clip_path)" data-figma-skip-parse="true" mask="url(#path-7-inside-4_1_42)"><g transform="matrix(0 0.5585 -1.09266 0 884 578.5)"><foreignObject x="-1026.86" y="-1026.86" width="2053.72" height="2053.72"><div xmlns="http://www.w3.org/1999/xhtml" style="background:conic-gradient(from 90deg,rgba(187, 108, 213, 1) 0deg,rgba(170, 110, 238, 1) 28.8deg,rgba(141, 152, 255, 1) 50.4deg,rgba(244, 185, 234, 1) 93.6deg,rgba(255, 186, 113, 1) 111.6deg,rgba(188, 130, 243, 1) 118.8deg,rgba(198, 134, 255, 1) 151.2deg,rgba(255, 103, 119, 1) 252deg,rgba(187, 108, 213, 1) 360deg);height:100%;width:100%;opacity:1"></div></foreignObject></g></g><path d="M20 20L20.4018 5.00538L4.61385 4.58229L5.00459 20.3711L20 20ZM1748 20L1763 20.2127L1763.22 4.8944L1747.9 5.00036L1748 20ZM1748 1137L1747.58 1151.99L1763.07 1152.43L1763 1136.93L1748 1137ZM20 1137L5.00418 1136.65L4.63831 1152.13L20.1308 1152L20 1137ZM1744 302L1729 301.787L1729 301.93L1729 302.072L1744 302ZM1338.5 1125.5L1338.92 1110.51L1338.65 1110.5L1338.37 1110.5L1338.5 1125.5ZM33.5 565.5L48.4958 565.854L48.5044 565.492L48.4954 565.129L33.5 565.5ZM374.5 29.5L374.098 44.4946L374.351 44.5014L374.604 44.4996L374.5 29.5ZM1733 19.7873L1729 301.787L1759 302.213L1763 20.2127L1733 19.7873ZM1729 302.072L1733 1137.07L1763 1136.93L1759 301.928L1729 302.072ZM1748.42 1122.01L1338.92 1110.51L1338.08 1140.49L1747.58 1151.99L1748.42 1122.01ZM1338.37 1110.5L19.8692 1122L20.1308 1152L1338.63 1140.5L1338.37 1110.5ZM34.9958 1137.35L48.4958 565.854L18.5042 565.146L5.00418 1136.65L34.9958 1137.35ZM48.4954 565.129L34.9954 19.6289L5.00459 20.3711L18.5046 565.871L48.4954 565.129ZM19.5982 34.9946L374.098 44.4946L374.902 14.5054L20.4018 5.00538L19.5982 34.9946ZM374.604 44.4996L1748.1 34.9996L1747.9 5.00036L374.396 14.5004L374.604 44.4996Z" data-figma-gradient-fill="{&#34;type&#34;:&#34;GRADIENT_ANGULAR&#34;,&#34;stops&#34;:[{&#34;color&#34;:{&#34;r&#34;:0.66666668653488159,&#34;g&#34;:0.43137255311012268,&#34;b&#34;:0.93333333730697632,&#34;a&#34;:1.0},&#34;position&#34;:0.079999998211860657},{&#34;color&#34;:{&#34;r&#34;:0.55441081523895264,&#34;g&#34;:0.59937852621078491,&#34;b&#34;:1.0,&#34;a&#34;:1.0},&#34;position&#34;:0.14000000059604645},{&#34;color&#34;:{&#34;r&#34;:0.95904946327209473,&#34;g&#34;:0.72734165191650391,&#34;b&#34;:0.91948962211608887,&#34;a&#34;:1.0},&#34;position&#34;:0.25999999046325684},{&#34;color&#34;:{&#34;r&#34;:1.0,&#34;g&#34;:0.73015475273132324,&#34;b&#34;:0.44365233182907104,&#34;a&#34;:1.0},&#34;position&#34;:0.31000000238418579},{&#34;color&#34;:{&#34;r&#34;:0.73725491762161255,&#34;g&#34;:0.50980395078659058,&#34;b&#34;:0.95294117927551270,&#34;a&#34;:1.0},&#34;position&#34;:0.33000001311302185},{&#34;color&#34;:{&#34;r&#34;:0.77719807624816895,&#34;g&#34;:0.52703452110290527,&#34;b&#34;:1.0,&#34;a&#34;:1.0},&#34;position&#34;:0.41999998688697815},{&#34;color&#34;:{&#34;r&#34;:1.0,&#34;g&#34;:0.40445962548255920,&#34;b&#34;:0.46972432732582092,&#34;a&#34;:1.0},&#34;position&#34;:0.69999998807907104}],&#34;stopsVar&#34;:[{&#34;color&#34;:{&#34;r&#34;:0.66666668653488159,&#34;g&#34;:0.43137255311012268,&#34;b&#34;:0.93333333730697632,&#34;a&#34;:1.0},&#34;position&#34;:0.079999998211860657},{&#34;color&#34;:{&#34;r&#34;:0.55441081523895264,&#34;g&#34;:0.59937852621078491,&#34;b&#34;:1.0,&#34;a&#34;:1.0},&#34;position&#34;:0.14000000059604645},{&#34;color&#34;:{&#34;r&#34;:0.95904946327209473,&#34;g&#34;:0.72734165191650391,&#34;b&#34;:0.91948962211608887,&#34;a&#34;:1.0},&#34;position&#34;:0.25999999046325684},{&#34;color&#34;:{&#34;r&#34;:1.0,&#34;g&#34;:0.73015475273132324,&#34;b&#34;:0.44365233182907104,&#34;a&#34;:1.0},&#34;position&#34;:0.31000000238418579},{&#34;color&#34;:{&#34;r&#34;:0.73725491762161255,&#34;g&#34;:0.50980395078659058,&#34;b&#34;:0.95294117927551270,&#34;a&#34;:1.0},&#34;position&#34;:0.33000001311302185},{&#34;color&#34;:{&#34;r&#34;:0.77719807624816895,&#34;g&#34;:0.52703452110290527,&#34;b&#34;:1.0,&#34;a&#34;:1.0},&#34;position&#34;:0.41999998688697815},{&#34;color&#34;:{&#34;r&#34;:1.0,&#34;g&#34;:0.40445962548255920,&#34;b&#34;:0.46972432732582092,&#34;a&#34;:1.0},&#34;position&#34;:0.69999998807907104}],&#34;transform&#34;:{&#34;m00&#34;:1.0580948552225966e-13,&#34;m01&#34;:-2185.3181152343750,&#34;m02&#34;:1976.6590576171875,&#34;m10&#34;:1117.0,&#34;m11&#34;:-3.7514127004464881e-14,&#34;m12&#34;:20.0},&#34;opacity&#34;:1.0,&#34;blendMode&#34;:&#34;NORMAL&#34;,&#34;visible&#34;:true}" mask="url(#path-7-inside-4_1_42)"/>
</g>
<defs>
<filter id="filter0_f_1_42" x="18" y="18" width="1732" height="1121" filterUnits="userSpaceOnUse" color-interpolation-filters="sRGB">
<feFlood flood-opacity="0" result="BackgroundImageFix"/>
<feBlend mode="normal" in="SourceGraphic" in2="BackgroundImageFix" result="shape"/>
<feGaussianBlur stdDeviation="1" result="effect1_foregroundBlur_1_42"/>
</filter>
<clipPath id="paint0_angular_1_42_clip_path"><path d="M20 20V16H16V20H20ZM1748 20H1752V16H1748V20ZM1748 1137V1141H1752V1137H1748ZM20 1137H16V1141H20V1137ZM20 24H1748V16H20V24ZM1744 20V1137H1752V20H1744ZM1748 1133H20V1141H1748V1133ZM24 1137V20H16V1137H24Z"/></clipPath><filter id="filter1_f_1_42" x="16" y="16" width="1736" height="1125" filterUnits="userSpaceOnUse" color-interpolation-filters="sRGB">
<feFlood flood-opacity="0" result="BackgroundImageFix"/>
<feBlend mode="normal" in="SourceGraphic" in2="BackgroundImageFix" result="shape"/>
<feGaussianBlur stdDeviation="2" result="effect1_foregroundBlur_1_42"/>
</filter>
<clipPath id="paint1_angular_1_42_clip_path"><path d="M20 20V12.5H12.5V20H20ZM1748 20H1755.5V12.5H1748V20ZM1748 1137V1144.5H1755.5V1137H1748ZM20 1137H12.5V1144.5H20V1137ZM20 27.5H1748V12.5H20V27.5ZM1740.5 20V1137H1755.5V20H1740.5ZM1748 1129.5H20V1144.5H1748V1129.5ZM27.5 1137V20H12.5V1137H27.5Z"/></clipPath><filter id="filter2_f_1_42" x="10" y="10" width="1748" height="1137" filterUnits="userSpaceOnUse" color-interpolation-filters="sRGB">
<feFlood flood-opacity="0" result="BackgroundImageFix"/>
<feBlend mode="normal" in="SourceGraphic" in2="BackgroundImageFix" result="shape"/>
<feGaussianBlur stdDeviation="5" result="effect1_foregroundBlur_1_42"/>
</filter>
<clipPath id="paint2_angular_1_42_clip_path"><path d="M20 20V9.5H9.5V20H20ZM1748 20H1758.5V9.5H1748V20ZM1748 1137V1147.5H1758.5V1137H1748ZM20 1137H9.5V1147.5H20V1137ZM20 30.5H1748V9.5H20V30.5ZM1737.5 20V1137H1758.5V20H1737.5ZM1748 1126.5H20V1147.5H1748V1126.5ZM30.5 1137V20H9.5V1137H30.5Z"/></clipPath><filter id="filter3_f_1_42" x="0" y="0" width="1768" height="1157" filterUnits="userSpaceOnUse" color-interpolation-filters="sRGB">
<feFlood flood-opacity="0" result="BackgroundImageFix"/>
<feBlend mode="normal" in="SourceGraphic" in2="BackgroundImageFix" result="shape"/>
<feGaussianBlur stdDeviation="10" result="effect1_foregroundBlur_1_42"/>
</filter>
<clipPath id="paint3_angular_1_42_clip_path"><path d="M20 20L20.4018 5.00538L4.61385 4.58229L5.00459 20.3711L20 20ZM1748 20L1763 20.2127L1763.22 4.8944L1747.9 5.00036L1748 20ZM1748 1137L1747.58 1151.99L1763.07 1152.43L1763 1136.93L1748 1137ZM20 1137L5.00418 1136.65L4.63831 1152.13L20.1308 1152L20 1137ZM1744 302L1729 301.787L1729 301.93L1729 302.072L1744 302ZM1338.5 1125.5L1338.92 1110.51L1338.65 1110.5L1338.37 1110.5L1338.5 1125.5ZM33.5 565.5L48.4958 565.854L48.5044 565.492L48.4954 565.129L33.5 565.5ZM374.5 29.5L374.098 44.4946L374.351 44.5014L374.604 44.4996L374.5 29.5ZM1733 19.7873L1729 301.787L1759 302.213L1763 20.2127L1733 19.7873ZM1729 302.072L1733 1137.07L1763 1136.93L1759 301.928L1729 302.072ZM1748.42 1122.01L1338.92 1110.51L1338.08 1140.49L1747.58 1151.99L1748.42 1122.01ZM1338.37 1110.5L19.8692 1122L20.1308 1152L1338.63 1140.5L1338.37 1110.5ZM34.9958 1137.35L48.4958 565.854L18.5042 565.146L5.00418 1136.65L34.9958 1137.35ZM48.4954 565.129L34.9954 19.6289L5.00459 20.3711L18.5046 565.871L48.4954 565.129ZM19.5982 34.9946L374.098 44.4946L374.902 14.5054L20.4018 5.00538L19.5982 34.9946ZM374.604 44.4996L1748.1 34.9996L1747.9 5.00036L374.396 14.5004L374.604 44.4996Z"/></clipPath></defs>
</svg>
